# Blender v2.79 (sub 0) OBJ File: 'letters_in_3d.blend'
# www.blender.org
mtllib letters_T.mtl
o Text
v 0.503555 0.327475 0.157691
v 0.511647 -0.266234 0.174434
v 0.413659 -0.267547 0.175213
v 0.405567 0.326162 0.158470
v 0.169596 0.322999 0.160345
v 0.168397 0.410955 0.157865
v 0.738328 0.418595 0.153335
v 0.739526 0.330639 0.155815
v 0.501860 0.321138 -0.066213
v 0.509952 -0.272571 -0.049470
v 0.411964 -0.273885 -0.048691
v 0.403872 0.319824 -0.065434
v 0.167901 0.316661 -0.063559
v 0.166702 0.404618 -0.066039
v 0.736633 0.412258 -0.070569
v 0.737832 0.324301 -0.068088
v 0.501860 0.321138 -0.066213
v 0.507954 0.315267 -0.064485
v 0.512439 0.311060 -0.060005
v 0.514113 0.309644 -0.053975
v 0.509952 -0.272571 -0.049470
v 0.516046 -0.278442 -0.047741
v 0.520530 -0.282649 -0.043262
v 0.522205 -0.284065 -0.037232
v 0.411964 -0.273885 -0.048691
v 0.406059 -0.279917 -0.046867
v 0.401760 -0.284241 -0.042318
v 0.400220 -0.285700 -0.036262
v 0.403872 0.319824 -0.065434
v 0.397967 0.313792 -0.063610
v 0.393668 0.309467 -0.059061
v 0.392128 0.308009 -0.053006
v 0.167901 0.316661 -0.063559
v 0.161996 0.310629 -0.061735
v 0.157697 0.306304 -0.057186
v 0.156157 0.304846 -0.051130
v 0.166702 0.404618 -0.066039
v 0.160633 0.410580 -0.064554
v 0.156215 0.415036 -0.060252
v 0.154631 0.416791 -0.054287
v 0.736633 0.412258 -0.070569
v 0.742563 0.418381 -0.069179
v 0.746928 0.422954 -0.064947
v 0.748559 0.424752 -0.059008
v 0.737832 0.324301 -0.068088
v 0.743925 0.318430 -0.066360
v 0.748410 0.314223 -0.061881
v 0.750085 0.312807 -0.055851
v 0.514113 0.309644 -0.053975
v 0.515626 0.315303 0.145939
v 0.522205 -0.284065 -0.037232
v 0.523718 -0.278406 0.162682
v 0.400220 -0.285700 -0.036262
v 0.401733 -0.280042 0.163652
v 0.392128 0.308009 -0.053006
v 0.393641 0.313667 0.146908
v 0.156157 0.304846 -0.051130
v 0.157670 0.310504 0.148784
v 0.154631 0.416791 -0.054287
v 0.156144 0.422449 0.145627
v 0.748559 0.424752 -0.059008
v 0.750072 0.430411 0.140906
v 0.750085 0.312807 -0.055851
v 0.751598 0.318466 0.144064
v 0.515626 0.315303 0.145939
v 0.514042 0.317058 0.151904
v 0.509624 0.321513 0.156205
v 0.503555 0.327475 0.157691
v 0.523718 -0.278406 0.162682
v 0.522134 -0.276651 0.168647
v 0.517716 -0.272196 0.172949
v 0.511647 -0.266234 0.174434
v 0.401733 -0.280042 0.163652
v 0.403364 -0.278243 0.169591
v 0.407729 -0.273670 0.173823
v 0.413659 -0.267547 0.175213
v 0.393641 0.313667 0.146908
v 0.395272 0.315466 0.152848
v 0.399637 0.320039 0.157079
v 0.405567 0.326162 0.158470
v 0.157670 0.310504 0.148784
v 0.159301 0.312302 0.154723
v 0.163666 0.316876 0.158955
v 0.169596 0.322999 0.160345
v 0.156144 0.422449 0.145627
v 0.157819 0.421034 0.151657
v 0.162304 0.416827 0.156136
v 0.168397 0.410955 0.157865
v 0.750072 0.430411 0.140906
v 0.748532 0.428952 0.146962
v 0.744233 0.424627 0.151511
v 0.738328 0.418595 0.153335
v 0.751598 0.318466 0.144064
v 0.750014 0.320221 0.150028
v 0.745595 0.324676 0.154330
v 0.739526 0.330639 0.155815
vn 0.0076 0.0283 0.9996
vn -0.0078 -0.0624 0.9980
vn 0.0154 -0.1843 0.9828
vn -0.0076 -0.0283 -0.9996
vn 0.0058 0.1240 0.9923
vn -0.0048 -0.1317 -0.9913
vn 0.2041 -0.2326 -0.9509
vn 0.3310 -0.3535 -0.8749
vn 0.1259 -0.1576 -0.9794
vn 0.5152 -0.5258 -0.6768
vn 0.5923 -0.5961 -0.5421
vn 0.6675 -0.6620 -0.3408
vn -0.3352 -0.3624 -0.8696
vn -0.1372 -0.1611 -0.9773
vn -0.5846 -0.6118 -0.5327
vn -0.6548 -0.6798 -0.3303
vn -0.2129 -0.2382 -0.9476
vn -0.5116 -0.5395 -0.6687
vn -0.3443 0.3036 -0.8884
vn -0.1408 0.1020 -0.9847
vn -0.6007 0.5647 -0.5659
vn -0.6728 0.6420 -0.3676
vn 0.3219 0.3125 -0.8937
vn 0.1224 0.1055 -0.9868
vn 0.5763 0.5805 -0.5752
vn 0.6494 0.6597 -0.3781
vn 0.7166 -0.6973 0.0143
vn -0.6974 -0.7162 0.0255
vn -0.7166 0.6973 -0.0143
vn 0.6974 0.7162 -0.0255
vn 0.5256 -0.4869 0.6976
vn 0.6007 -0.5647 0.5659
vn 0.6728 -0.6420 0.3676
vn 0.2185 -0.1786 0.9593
vn 0.3443 -0.3036 0.8884
vn 0.1408 -0.1020 0.9847
vn -0.5763 -0.5805 0.5752
vn -0.6494 -0.6597 0.3781
vn -0.3219 -0.3125 0.8937
vn -0.1224 -0.1055 0.9868
vn -0.5012 -0.5007 0.7058
vn -0.1984 -0.1842 0.9626
vn -0.5923 0.5961 0.5421
vn -0.6675 0.6620 0.3408
vn -0.3310 0.3535 0.8749
vn -0.1259 0.1576 0.9794
vn 0.5846 0.6118 0.5327
vn 0.6548 0.6798 0.3303
vn 0.3352 0.3624 0.8696
vn 0.1372 0.1611 0.9773
usemtl Material.001
s off
f 5//1 7//1 6//1
f 5//1 8//1 7//1
f 4//2 8//2 5//2
f 3//1 1//1 4//1
f 1//3 8//3 4//3
f 3//1 2//1 1//1
f 15//4 13//4 14//4
f 16//4 13//4 15//4
f 16//5 12//5 13//5
f 9//4 11//4 12//4
f 16//6 9//6 12//6
f 10//4 11//4 9//4
s 1
f 18//7 22//8 21//9 17//9
f 19//10 23//11 22//8 18//7
f 20//12 24//12 23//11 19//10
f 22//8 26//13 25//14 21//9
f 23//11 27//15 26//13 22//8
f 24//12 28//16 27//15 23//11
f 26//13 30//17 29//14 25//14
f 27//15 31//18 30//17 26//13
f 28//16 32//16 31//18 27//15
f 30//17 34//13 33//14 29//14
f 31//18 35//15 34//13 30//17
f 32//16 36//16 35//15 31//18
f 34//13 38//19 37//20 33//14
f 35//15 39//21 38//19 34//13
f 36//16 40//22 39//21 35//15
f 38//19 42//23 41//24 37//20
f 39//21 43//25 42//23 38//19
f 40//22 44//26 43//25 39//21
f 42//23 46//8 45//9 41//24
f 43//25 47//11 46//8 42//23
f 44//26 48//12 47//11 43//25
f 46//8 18//7 17//9 45//9
f 47//11 19//10 18//7 46//8
f 48//12 20//12 19//10 47//11
f 50//27 52//27 51//27 49//27
f 52//27 54//28 53//28 51//27
f 54//28 56//28 55//28 53//28
f 56//28 58//28 57//28 55//28
f 58//28 60//29 59//29 57//28
f 60//29 62//30 61//30 59//29
f 62//30 64//27 63//27 61//30
f 64//27 50//27 49//27 63//27
f 66//31 70//32 69//33 65//33
f 67//34 71//35 70//32 66//31
f 68//36 72//36 71//35 67//34
f 70//32 74//37 73//38 69//33
f 71//35 75//39 74//37 70//32
f 72//36 76//40 75//39 71//35
f 74//37 78//41 77//38 73//38
f 75//39 79//42 78//41 74//37
f 76//40 80//40 79//42 75//39
f 78//41 82//37 81//38 77//38
f 79//42 83//39 82//37 78//41
f 80//40 84//40 83//39 79//42
f 82//37 86//43 85//44 81//38
f 83//39 87//45 86//43 82//37
f 84//40 88//46 87//45 83//39
f 86//43 90//47 89//48 85//44
f 87//45 91//49 90//47 86//43
f 88//46 92//50 91//49 87//45
f 90//47 94//32 93//33 89//48
f 91//49 95//35 94//32 90//47
f 92//50 96//36 95//35 91//49
f 94//32 66//31 65//33 93//33
f 95//35 67//34 66//31 94//32
f 96//36 68//36 67//34 95//35
