# Blender v2.79 (sub 0) OBJ File: 'letters_in_3d.blend'
# www.blender.org
mtllib letters_K.mtl
o Text
v 0.680627 -0.263968 0.173091
v 0.329078 0.068215 0.166350
v 0.333669 -0.268619 0.175849
v 0.235680 -0.269933 0.176628
v 0.226390 0.411733 0.157404
v 0.324378 0.413046 0.156625
v 0.328628 0.101199 0.165419
v 0.611343 0.416893 0.154344
v 0.733328 0.418528 0.153375
v 0.440764 0.091706 0.164839
v 0.815610 -0.262159 0.172019
v 0.678932 -0.270306 -0.050813
v 0.327383 0.061878 -0.057554
v 0.331974 -0.274957 -0.048055
v 0.233986 -0.276270 -0.047276
v 0.224695 0.405395 -0.066500
v 0.322683 0.406709 -0.067279
v 0.326934 0.094862 -0.058485
v 0.609648 0.410556 -0.069560
v 0.731634 0.412191 -0.070529
v 0.439070 0.085368 -0.059064
v 0.813916 -0.268496 -0.051885
v 0.678932 -0.270306 -0.050813
v 0.676592 -0.276290 -0.049017
v 0.674904 -0.280580 -0.044489
v 0.674319 -0.282026 -0.038441
v 0.327383 0.061878 -0.057554
v 0.333588 0.047820 -0.055595
v 0.338154 0.037619 -0.050947
v 0.339859 0.034010 -0.044855
v 0.331974 -0.274957 -0.048055
v 0.338067 -0.280828 -0.046327
v 0.342552 -0.285035 -0.041847
v 0.344227 -0.286451 -0.035817
v 0.233986 -0.276270 -0.047276
v 0.228081 -0.282302 -0.045453
v 0.223782 -0.286627 -0.040903
v 0.222242 -0.288086 -0.034848
v 0.224695 0.405395 -0.066500
v 0.218626 0.411357 -0.065015
v 0.214208 0.415813 -0.060713
v 0.212624 0.417568 -0.054748
v 0.322683 0.406709 -0.067279
v 0.328613 0.412832 -0.065889
v 0.332978 0.417405 -0.061657
v 0.334609 0.419203 -0.055718
v 0.326934 0.094862 -0.058485
v 0.332735 0.110365 -0.057359
v 0.337007 0.121806 -0.053321
v 0.338604 0.126117 -0.047452
v 0.609648 0.410556 -0.069560
v 0.606946 0.416563 -0.068101
v 0.604992 0.421052 -0.063819
v 0.604310 0.422819 -0.057861
v 0.731634 0.412191 -0.070529
v 0.745230 0.418417 -0.069200
v 0.755208 0.423065 -0.065013
v 0.758894 0.424891 -0.059090
v 0.439070 0.085368 -0.059064
v 0.447448 0.085765 -0.057531
v 0.453606 0.086146 -0.053194
v 0.455893 0.086409 -0.047216
v 0.813916 -0.268496 -0.051885
v 0.828808 -0.274250 -0.050227
v 0.839734 -0.278370 -0.045799
v 0.843766 -0.279754 -0.039787
v 0.674319 -0.282026 -0.038441
v 0.675832 -0.276367 0.161473
v 0.339859 0.034010 -0.044855
v 0.341372 0.039669 0.155059
v 0.344227 -0.286451 -0.035817
v 0.345740 -0.280792 0.164097
v 0.222242 -0.288086 -0.034848
v 0.223755 -0.282427 0.165066
v 0.212624 0.417568 -0.054748
v 0.214137 0.423227 0.145166
v 0.334609 0.419203 -0.055718
v 0.336122 0.424862 0.144196
v 0.338604 0.126117 -0.047452
v 0.340117 0.131776 0.152462
v 0.604310 0.422819 -0.057861
v 0.605823 0.428477 0.142053
v 0.758894 0.424891 -0.059090
v 0.760407 0.430550 0.140824
v 0.455893 0.086409 -0.047216
v 0.457406 0.092068 0.152698
v 0.843766 -0.279754 -0.039787
v 0.845279 -0.274096 0.160127
v 0.675832 -0.276367 0.161473
v 0.676507 -0.274582 0.167420
v 0.678262 -0.270043 0.171673
v 0.680627 -0.263968 0.173091
v 0.341372 0.039669 0.155059
v 0.339758 0.043617 0.160962
v 0.335258 0.054066 0.165095
v 0.329078 0.068215 0.166350
v 0.345740 -0.280792 0.164097
v 0.344156 -0.279037 0.170062
v 0.339737 -0.274582 0.174363
v 0.333669 -0.268619 0.175849
v 0.223755 -0.282427 0.165066
v 0.225386 -0.280629 0.171006
v 0.229751 -0.276056 0.175237
v 0.235680 -0.269933 0.176628
v 0.214137 0.423227 0.145166
v 0.215812 0.421811 0.151196
v 0.220297 0.417604 0.155675
v 0.226390 0.411733 0.157404
v 0.336122 0.424862 0.144196
v 0.334582 0.423403 0.150252
v 0.330283 0.419078 0.154801
v 0.324378 0.413046 0.156625
v 0.340117 0.131776 0.152462
v 0.338611 0.127804 0.158588
v 0.334406 0.116612 0.163331
v 0.328628 0.101199 0.165419
v 0.605823 0.428477 0.142053
v 0.606596 0.427050 0.148090
v 0.608616 0.422809 0.152589
v 0.611343 0.416893 0.154344
v 0.760407 0.430550 0.140824
v 0.756812 0.429063 0.146896
v 0.746901 0.424663 0.151490
v 0.733328 0.418528 0.153375
v 0.457406 0.092068 0.152698
v 0.455210 0.092144 0.158715
v 0.449118 0.092011 0.163159
v 0.440764 0.091706 0.164839
v 0.845279 -0.274096 0.160127
v 0.841338 -0.272372 0.166110
v 0.830478 -0.268003 0.170463
v 0.815610 -0.262159 0.172019
vn 0.0076 0.0283 0.9996
vn -0.0076 -0.0283 -0.9996
vn -0.1952 -0.5082 -0.8388
vn 0.0483 -0.1552 -0.9867
vn 0.0342 -0.1231 -0.9918
vn -0.0949 -0.2518 -0.9631
vn -0.3188 -0.8217 -0.4724
vn 0.1796 -0.4493 -0.8751
vn -0.3511 -0.9024 -0.2497
vn 0.3268 -0.7701 -0.5477
vn 0.3310 -0.3535 -0.8749
vn 0.1259 -0.1576 -0.9794
vn 0.5923 -0.5961 -0.5421
vn 0.6675 -0.6620 -0.3408
vn -0.3352 -0.3624 -0.8696
vn -0.1372 -0.1611 -0.9773
vn -0.5846 -0.6118 -0.5327
vn -0.6548 -0.6798 -0.3303
vn -0.3443 0.3036 -0.8884
vn -0.1408 0.1020 -0.9847
vn -0.6007 0.5647 -0.5659
vn -0.6728 0.6420 -0.3676
vn 0.3219 0.3125 -0.8937
vn 0.1224 0.1055 -0.9868
vn 0.5763 0.5805 -0.5752
vn 0.6494 0.6597 -0.3781
vn 0.0372 0.0914 -0.9951
vn 0.0264 0.0625 -0.9977
vn 0.1456 0.3814 -0.9128
vn 0.2777 0.7366 -0.6167
vn -0.2214 0.4479 -0.8662
vn -0.1061 0.1893 -0.9762
vn -0.3626 0.7739 -0.5191
vn -0.3997 0.8653 -0.3024
vn 0.2918 0.1093 -0.9502
vn 0.0899 0.0162 -0.9958
vn 0.6507 0.2788 -0.7063
vn 0.7530 0.3288 -0.5699
vn 0.2925 -0.0144 -0.9561
vn 0.1809 -0.0199 -0.9833
vn 0.7259 0.0114 -0.6877
vn 0.9331 0.0293 -0.3583
vn 0.2836 -0.1402 -0.9486
vn 0.0858 -0.0645 -0.9942
vn 0.6509 -0.2758 -0.7073
vn 0.7542 -0.3120 -0.5777
vn -0.3632 -0.9312 0.0291
vn 0.4019 -0.9154 0.0229
vn 0.7166 -0.6973 0.0143
vn -0.6974 -0.7162 0.0255
vn -0.7166 0.6973 -0.0143
vn 0.6974 0.7162 -0.0255
vn 0.3506 0.9361 -0.0291
vn -0.4143 0.9098 -0.0226
vn 0.9101 0.4140 -0.0186
vn 0.9991 0.0419 -0.0087
vn 0.9317 -0.3631 0.0032
vn -0.3113 -0.7935 0.5229
vn 0.1930 -0.3992 0.8963
vn 0.3354 -0.7381 0.5854
vn -0.3468 -0.8867 0.3056
vn -0.1823 -0.4598 0.8691
vn 0.0633 -0.0992 0.9930
vn -0.0802 -0.1969 0.9771
vn 0.0492 -0.0668 0.9965
vn 0.6007 -0.5647 0.5659
vn 0.6728 -0.6420 0.3676
vn 0.3443 -0.3036 0.8884
vn 0.1408 -0.1020 0.9847
vn -0.5763 -0.5805 0.5752
vn -0.6494 -0.6597 0.3781
vn -0.3219 -0.3125 0.8937
vn -0.1224 -0.1055 0.9868
vn -0.5923 0.5961 0.5421
vn -0.6675 0.6620 0.3408
vn -0.3310 0.3535 0.8749
vn -0.1259 0.1576 0.9794
vn 0.5847 0.6118 0.5327
vn 0.6548 0.6798 0.3303
vn 0.3352 0.3624 0.8696
vn 0.1372 0.1611 0.9773
vn 0.1592 0.4324 0.8875
vn 0.2866 0.7701 0.5698
vn 0.0522 0.1476 0.9876
vn 0.0415 0.1188 0.9920
vn -0.3551 0.8022 0.4799
vn -0.3955 0.8812 0.2590
vn -0.2085 0.4963 0.8427
vn -0.0914 0.2443 0.9654
vn 0.6612 0.3180 0.6794
vn 0.7614 0.3602 0.5390
vn 0.3061 0.1627 0.9380
vn 0.1050 0.0725 0.9918
vn 0.7361 0.0499 0.6749
vn 0.9384 0.0491 0.3419
vn 0.3069 0.0396 0.9509
vn 0.1958 0.0357 0.9800
vn 0.6616 -0.2356 0.7118
vn 0.7630 -0.2792 0.5830
vn 0.2980 -0.0864 0.9506
vn 0.1008 -0.0082 0.9948
usemtl Material.001
s off
f 4//1 6//1 5//1
f 4//1 7//1 6//1
f 7//1 9//1 8//1
f 7//1 10//1 9//1
f 4//1 2//1 7//1
f 2//1 10//1 7//1
f 2//1 11//1 10//1
f 4//1 3//1 2//1
f 1//1 11//1 2//1
f 17//2 15//2 16//2
f 18//2 15//2 17//2
f 20//2 18//2 19//2
f 21//2 18//2 20//2
f 13//2 15//2 18//2
f 21//2 13//2 18//2
f 22//2 13//2 21//2
f 14//2 15//2 13//2
f 22//2 12//2 13//2
s 1
f 24//3 28//4 27//5 23//6
f 25//7 29//8 28//4 24//3
f 26//9 30//10 29//8 25//7
f 28//4 32//11 31//12 27//5
f 29//8 33//13 32//11 28//4
f 30//10 34//14 33//13 29//8
f 32//11 36//15 35//16 31//12
f 33//13 37//17 36//15 32//11
f 34//14 38//18 37//17 33//13
f 36//15 40//19 39//20 35//16
f 37//17 41//21 40//19 36//15
f 38//18 42//22 41//21 37//17
f 40//19 44//23 43//24 39//20
f 41//21 45//25 44//23 40//19
f 42//22 46//26 45//25 41//21
f 44//23 48//27 47//28 43//24
f 45//25 49//29 48//27 44//23
f 46//26 50//30 49//29 45//25
f 48//27 52//31 51//32 47//28
f 49//29 53//33 52//31 48//27
f 50//30 54//34 53//33 49//29
f 52//31 56//35 55//36 51//32
f 53//33 57//37 56//35 52//31
f 54//34 58//38 57//37 53//33
f 56//35 60//39 59//40 55//36
f 57//37 61//41 60//39 56//35
f 58//38 62//42 61//41 57//37
f 60//39 64//43 63//44 59//40
f 61//41 65//45 64//43 60//39
f 62//42 66//46 65//45 61//41
f 64//43 24//3 23//6 63//44
f 65//45 25//7 24//3 64//43
f 66//46 26//9 25//7 65//45
f 68//47 70//48 69//48 67//47
f 70//48 72//49 71//49 69//48
f 72//49 74//50 73//50 71//49
f 74//50 76//51 75//51 73//50
f 76//51 78//52 77//52 75//51
f 78//52 80//53 79//53 77//52
f 80//53 82//54 81//54 79//53
f 82//54 84//55 83//55 81//54
f 84//55 86//56 85//56 83//55
f 86//56 88//57 87//57 85//56
f 88//57 68//47 67//47 87//57
f 90//58 94//59 93//60 89//61
f 91//62 95//63 94//59 90//58
f 92//64 96//65 95//63 91//62
f 94//59 98//66 97//67 93//60
f 95//63 99//68 98//66 94//59
f 96//65 100//69 99//68 95//63
f 98//66 102//70 101//71 97//67
f 99//68 103//72 102//70 98//66
f 100//69 104//73 103//72 99//68
f 102//70 106//74 105//75 101//71
f 103//72 107//76 106//74 102//70
f 104//73 108//77 107//76 103//72
f 106//74 110//78 109//79 105//75
f 107//76 111//80 110//78 106//74
f 108//77 112//81 111//80 107//76
f 110//78 114//82 113//83 109//79
f 111//80 115//84 114//82 110//78
f 112//81 116//85 115//84 111//80
f 114//82 118//86 117//87 113//83
f 115//84 119//88 118//86 114//82
f 116//85 120//89 119//88 115//84
f 118//86 122//90 121//91 117//87
f 119//88 123//92 122//90 118//86
f 120//89 124//93 123//92 119//88
f 122//90 126//94 125//95 121//91
f 123//92 127//96 126//94 122//90
f 124//93 128//97 127//96 123//92
f 126//94 130//98 129//99 125//95
f 127//96 131//100 130//98 126//94
f 128//97 132//101 131//100 127//96
f 130//98 90//58 89//61 129//99
f 131//100 91//62 90//58 130//98
f 132//101 92//64 91//62 131//100
