# Blender v2.79 (sub 0) OBJ File: 'letters_in_3d.blend'
# www.blender.org
mtllib letters_W.mtl
o Text
v 0.905681 -0.266950 0.171472
v 0.674107 0.287775 0.157524
v 0.455736 -0.272981 0.175048
v 0.436738 -0.273236 0.175199
v 0.151399 0.410728 0.158000
v 0.249387 0.412041 0.157221
v 0.443767 -0.055209 0.168975
v 0.626341 0.417094 0.154225
v 0.719330 0.418341 0.153486
v 0.915710 -0.048882 0.165224
v 1.095284 0.423381 0.150498
v 1.192272 0.424681 0.149727
v 0.924679 -0.266695 0.171321
v 0.903986 -0.273287 -0.052431
v 0.672412 0.281437 -0.066380
v 0.454041 -0.279319 -0.048855
v 0.435043 -0.279573 -0.048704
v 0.149704 0.404390 -0.065904
v 0.247692 0.405704 -0.066683
v 0.442072 -0.061546 -0.054929
v 0.624647 0.410757 -0.069679
v 0.717635 0.412003 -0.070418
v 0.914015 -0.055220 -0.058680
v 1.093590 0.417043 -0.073406
v 1.190578 0.418343 -0.074177
v 0.922984 -0.273032 -0.052582
v 0.903986 -0.273287 -0.052431
v 0.900024 -0.279293 -0.050623
v 0.897148 -0.283599 -0.046085
v 0.896128 -0.285050 -0.040034
v 0.672412 0.281437 -0.066380
v 0.672618 0.265446 -0.064321
v 0.672793 0.253831 -0.059599
v 0.672890 0.249703 -0.053480
v 0.454041 -0.279319 -0.048855
v 0.458178 -0.285216 -0.047111
v 0.461230 -0.289442 -0.042621
v 0.462381 -0.290865 -0.036587
v 0.435043 -0.279573 -0.048704
v 0.431080 -0.285579 -0.046896
v 0.428203 -0.289885 -0.042358
v 0.427183 -0.291337 -0.036307
v 0.149704 0.404390 -0.065904
v 0.140764 0.410314 -0.064396
v 0.134244 0.414741 -0.060078
v 0.131890 0.416486 -0.054107
v 0.247692 0.405704 -0.066683
v 0.251685 0.411801 -0.065277
v 0.254631 0.416355 -0.061035
v 0.255743 0.418146 -0.055091
v 0.442072 -0.061546 -0.054929
v 0.441880 -0.045390 -0.053776
v 0.441763 -0.033472 -0.049719
v 0.441753 -0.028985 -0.043843
v 0.624647 0.410757 -0.069679
v 0.620523 0.416745 -0.068209
v 0.617529 0.421220 -0.063919
v 0.616467 0.422982 -0.057958
v 0.717635 0.412003 -0.070418
v 0.721612 0.418100 -0.069012
v 0.724547 0.422654 -0.064769
v 0.725654 0.424445 -0.058826
v 0.914015 -0.055220 -0.058680
v 0.913748 -0.039027 -0.057528
v 0.913577 -0.027083 -0.053470
v 0.913547 -0.022586 -0.047595
v 1.093590 0.417043 -0.073406
v 1.089442 0.423031 -0.071936
v 1.086431 0.427505 -0.067645
v 1.085361 0.429267 -0.061685
v 1.190578 0.418343 -0.074177
v 1.199391 0.424505 -0.072809
v 1.205867 0.429106 -0.068595
v 1.208271 0.430915 -0.062661
v 0.922984 -0.273032 -0.052582
v 0.927130 -0.278930 -0.050839
v 0.930189 -0.283156 -0.046348
v 0.931342 -0.284578 -0.040314
v 0.896128 -0.285050 -0.040034
v 0.897641 -0.279392 0.159880
v 0.672890 0.249703 -0.053480
v 0.674403 0.255362 0.146434
v 0.462381 -0.290865 -0.036587
v 0.463894 -0.285206 0.163328
v 0.427183 -0.291337 -0.036307
v 0.428696 -0.285678 0.163607
v 0.131890 0.416486 -0.054107
v 0.133403 0.422144 0.145808
v 0.255743 0.418146 -0.055091
v 0.257256 0.423805 0.144823
v 0.441753 -0.028985 -0.043843
v 0.443266 -0.023326 0.156071
v 0.616467 0.422982 -0.057958
v 0.617980 0.428640 0.141956
v 0.725654 0.424445 -0.058826
v 0.727167 0.430104 0.141089
v 0.913547 -0.022586 -0.047595
v 0.915060 -0.016928 0.152320
v 1.085361 0.429267 -0.061685
v 1.086874 0.434926 0.138230
v 1.208271 0.430915 -0.062661
v 1.209784 0.436574 0.137253
v 0.931342 -0.284578 -0.040314
v 0.932855 -0.278920 0.159600
v 0.897641 -0.279392 0.159880
v 0.898751 -0.277601 0.165824
v 0.901694 -0.273046 0.170067
v 0.905681 -0.266950 0.171472
v 0.674403 0.255362 0.146434
v 0.674397 0.259829 0.152310
v 0.674288 0.271692 0.156369
v 0.674107 0.287775 0.157524
v 0.463894 -0.285206 0.163328
v 0.462834 -0.283444 0.169288
v 0.459848 -0.278970 0.173578
v 0.455736 -0.272981 0.175048
v 0.428696 -0.285678 0.163607
v 0.429807 -0.283887 0.169551
v 0.432750 -0.279333 0.173794
v 0.436738 -0.273236 0.175199
v 0.133403 0.422144 0.145808
v 0.135847 0.420739 0.151831
v 0.142434 0.416560 0.156294
v 0.151399 0.410728 0.158000
v 0.257256 0.423805 0.144823
v 0.256235 0.422353 0.150875
v 0.253355 0.418047 0.155412
v 0.249387 0.412041 0.157221
v 0.443266 -0.023326 0.156071
v 0.443367 -0.027474 0.162190
v 0.443550 -0.039143 0.166914
v 0.443767 -0.055209 0.168975
v 0.617980 0.428640 0.141956
v 0.619133 0.427218 0.147990
v 0.622194 0.422991 0.152481
v 0.626341 0.417094 0.154225
v 0.727167 0.430104 0.141089
v 0.726150 0.428652 0.147140
v 0.723282 0.424347 0.151678
v 0.719330 0.418341 0.153486
v 0.915060 -0.016928 0.152320
v 0.915180 -0.021085 0.158439
v 0.915418 -0.032781 0.163162
v 0.915710 -0.048882 0.165224
v 1.086874 0.434926 0.138230
v 1.088034 0.433503 0.144264
v 1.091113 0.429277 0.148754
v 1.095284 0.423381 0.150498
v 1.209784 0.436574 0.137253
v 1.207471 0.435104 0.143315
v 1.201061 0.430751 0.147880
v 1.192272 0.424681 0.149727
v 0.932855 -0.278920 0.159600
v 0.931793 -0.277158 0.165561
v 0.928800 -0.272683 0.169851
v 0.924679 -0.266695 0.171321
vn 0.0076 0.0283 0.9996
vn -0.0076 -0.0283 -0.9996
vn -0.2835 -0.4461 -0.8489
vn -0.0059 -0.1602 -0.9870
vn -0.0063 -0.1278 -0.9918
vn -0.1263 -0.2087 -0.9698
vn -0.4730 -0.7289 -0.4948
vn -0.0014 -0.4716 -0.8818
vn -0.5244 -0.8036 -0.2812
vn 0.0054 -0.8289 -0.5593
vn 0.2813 -0.4391 -0.8532
vn 0.1162 -0.2058 -0.9716
vn 0.4835 -0.7170 -0.5022
vn 0.5401 -0.7903 -0.2893
vn -0.1263 -0.2086 -0.9698
vn -0.4731 -0.7289 -0.4948
vn -0.5245 -0.8036 -0.2812
vn -0.3522 0.2010 -0.9141
vn -0.1315 0.0535 -0.9898
vn -0.6666 0.4174 -0.6175
vn -0.7573 0.4829 -0.4396
vn 0.2706 0.3970 -0.8770
vn 0.1116 0.1533 -0.9818
vn 0.4656 0.6992 -0.5424
vn 0.5202 0.7859 -0.3342
vn -0.0092 0.1034 -0.9946
vn -0.0088 0.0710 -0.9974
vn -0.0124 0.4191 -0.9078
vn -0.0147 0.7947 -0.6068
vn -0.2948 0.3898 -0.8724
vn -0.1311 0.1502 -0.9799
vn -0.4921 0.6869 -0.5347
vn -0.5457 0.7721 -0.3255
vn 0.2700 0.3977 -0.8769
vn 0.1114 0.1537 -0.9818
vn 0.4644 0.7002 -0.5422
vn 0.5189 0.7870 -0.3338
vn -0.0098 0.1030 -0.9946
vn -0.0092 0.0708 -0.9974
vn -0.0144 0.4181 -0.9083
vn -0.0184 0.7939 -0.6077
vn -0.2957 0.3887 -0.8726
vn -0.1314 0.1496 -0.9799
vn -0.4939 0.6854 -0.5350
vn -0.5477 0.7705 -0.3260
vn 0.3321 0.2098 -0.9196
vn 0.1143 0.0566 -0.9918
vn 0.6454 0.4345 -0.6282
vn 0.7372 0.5024 -0.4518
vn 0.2817 -0.4387 -0.8533
vn 0.1164 -0.2055 -0.9717
vn 0.4841 -0.7164 -0.5023
vn 0.5409 -0.7897 -0.2895
vn -0.5488 -0.8355 0.0278
vn 0.0121 -0.9995 0.0282
vn 0.5701 -0.8214 0.0189
vn -0.5488 -0.8354 0.0278
vn -0.8359 0.5488 -0.0092
vn 0.5493 0.8352 -0.0278
vn -0.0127 0.9995 -0.0282
vn -0.5711 0.8206 -0.0189
vn 0.5477 0.8362 -0.0278
vn -0.0173 0.9995 -0.0281
vn -0.5733 0.8191 -0.0188
vn 0.8209 0.5705 -0.0223
vn 0.5709 -0.8208 0.0189
vn -0.4652 -0.6996 0.5423
vn 0.0121 -0.4210 0.9069
vn 0.0142 -0.7960 0.6051
vn -0.5198 -0.7862 0.3341
vn -0.2704 -0.3973 0.8769
vn 0.0091 -0.1041 0.9945
vn -0.1115 -0.1534 0.9818
vn 0.0087 -0.0715 0.9974
vn 0.4913 -0.6876 0.5345
vn 0.5448 -0.7729 0.3253
vn 0.2944 -0.3903 0.8723
vn 0.1310 -0.1505 0.9799
vn -0.4653 -0.6995 0.5423
vn -0.5199 -0.7862 0.3341
vn -0.2705 -0.3972 0.8769
vn -0.6574 0.4519 0.6030
vn -0.7508 0.5073 0.4230
vn -0.3385 0.2525 0.9064
vn -0.1166 0.1094 0.9871
vn 0.4735 0.7286 0.4949
vn 0.5249 0.8033 0.2813
vn 0.2837 0.4459 0.8489
vn 0.1263 0.2085 0.9698
vn 0.0011 0.4698 0.8828
vn -0.0059 0.8277 0.5611
vn 0.0058 0.1595 0.9872
vn 0.0063 0.1274 0.9918
vn -0.4843 0.7163 0.5024
vn -0.5410 0.7895 0.2896
vn -0.2817 0.4386 0.8533
vn -0.1164 0.2055 0.9717
vn 0.4722 0.7296 0.4946
vn 0.5235 0.8043 0.2809
vn 0.2831 0.4466 0.8488
vn 0.1262 0.2089 0.9697
vn -0.0009 0.4688 0.8833
vn -0.0096 0.8271 0.5620
vn 0.0052 0.1591 0.9872
vn 0.0058 0.1271 0.9919
vn -0.4861 0.7147 0.5028
vn -0.5431 0.7879 0.2901
vn -0.2827 0.4376 0.8536
vn -0.1166 0.2048 0.9718
vn 0.6547 0.4690 0.5928
vn 0.7437 0.5268 0.4115
vn 0.3459 0.2613 0.9011
vn 0.1292 0.1126 0.9852
vn 0.4920 -0.6870 0.5347
vn 0.5455 -0.7723 0.3255
vn 0.2947 -0.3899 0.8724
vn 0.1311 -0.1503 0.9799
usemtl Material.001
s off
f 4//1 6//1 5//1
f 4//1 7//1 6//1
f 7//1 9//1 8//1
f 7//1 2//1 9//1
f 2//1 10//1 9//1
f 10//1 12//1 11//1
f 10//1 13//1 12//1
f 7//1 3//1 2//1
f 1//1 10//1 2//1
f 4//1 3//1 7//1
f 1//1 13//1 10//1
f 19//2 17//2 18//2
f 20//2 17//2 19//2
f 22//2 20//2 21//2
f 15//2 20//2 22//2
f 23//2 15//2 22//2
f 25//2 23//2 24//2
f 26//2 23//2 25//2
f 16//2 20//2 15//2
f 23//2 14//2 15//2
f 16//2 17//2 20//2
f 26//2 14//2 23//2
s 1
f 28//3 32//4 31//5 27//6
f 29//7 33//8 32//4 28//3
f 30//9 34//10 33//8 29//7
f 32//4 36//11 35//12 31//5
f 33//8 37//13 36//11 32//4
f 34//10 38//14 37//13 33//8
f 36//11 40//3 39//15 35//12
f 37//13 41//16 40//3 36//11
f 38//14 42//17 41//16 37//13
f 40//3 44//18 43//19 39//15
f 41//16 45//20 44//18 40//3
f 42//17 46//21 45//20 41//16
f 44//18 48//22 47//23 43//19
f 45//20 49//24 48//22 44//18
f 46//21 50//25 49//24 45//20
f 48//22 52//26 51//27 47//23
f 49//24 53//28 52//26 48//22
f 50//25 54//29 53//28 49//24
f 52//26 56//30 55//31 51//27
f 53//28 57//32 56//30 52//26
f 54//29 58//33 57//32 53//28
f 56//30 60//34 59//35 55//31
f 57//32 61//36 60//34 56//30
f 58//33 62//37 61//36 57//32
f 60//34 64//38 63//39 59//35
f 61//36 65//40 64//38 60//34
f 62//37 66//41 65//40 61//36
f 64//38 68//42 67//43 63//39
f 65//40 69//44 68//42 64//38
f 66//41 70//45 69//44 65//40
f 68//42 72//46 71//47 67//43
f 69//44 73//48 72//46 68//42
f 70//45 74//49 73//48 69//44
f 72//46 76//50 75//51 71//47
f 73//48 77//52 76//50 72//46
f 74//49 78//53 77//52 73//48
f 76//50 28//3 27//6 75//51
f 77//52 29//7 28//3 76//50
f 78//53 30//9 29//7 77//52
f 80//54 82//55 81//55 79//54
f 82//55 84//56 83//56 81//55
f 84//56 86//57 85//57 83//56
f 86//57 88//58 87//58 85//57
f 88//58 90//59 89//59 87//58
f 90//59 92//60 91//60 89//59
f 92//60 94//61 93//61 91//60
f 94//61 96//62 95//62 93//61
f 96//62 98//63 97//63 95//62
f 98//63 100//64 99//64 97//63
f 100//64 102//65 101//65 99//64
f 102//65 104//66 103//66 101//65
f 104//66 80//54 79//54 103//66
f 106//67 110//68 109//69 105//70
f 107//71 111//72 110//68 106//67
f 108//73 112//74 111//72 107//71
f 110//68 114//75 113//76 109//69
f 111//72 115//77 114//75 110//68
f 112//74 116//78 115//77 111//72
f 114//75 118//79 117//80 113//76
f 115//77 119//81 118//79 114//75
f 116//78 120//73 119//81 115//77
f 118//79 122//82 121//83 117//80
f 119//81 123//84 122//82 118//79
f 120//73 124//85 123//84 119//81
f 122//82 126//86 125//87 121//83
f 123//84 127//88 126//86 122//82
f 124//85 128//89 127//88 123//84
f 126//86 130//90 129//91 125//87
f 127//88 131//92 130//90 126//86
f 128//89 132//93 131//92 127//88
f 130//90 134//94 133//95 129//91
f 131//92 135//96 134//94 130//90
f 132//93 136//97 135//96 131//92
f 134//94 138//98 137//99 133//95
f 135//96 139//100 138//98 134//94
f 136//97 140//101 139//100 135//96
f 138//98 142//102 141//103 137//99
f 139//100 143//104 142//102 138//98
f 140//101 144//105 143//104 139//100
f 142//102 146//106 145//107 141//103
f 143//104 147//108 146//106 142//102
f 144//105 148//109 147//108 143//104
f 146//106 150//110 149//111 145//107
f 147//108 151//112 150//110 146//106
f 148//109 152//113 151//112 147//108
f 150//110 154//114 153//115 149//111
f 151//112 155//116 154//114 150//110
f 152//113 156//117 155//116 151//112
f 154//114 106//67 105//70 153//115
f 155//116 107//71 106//67 154//114
f 156//117 108//73 107//71 155//116
