# Blender v2.79 (sub 0) OBJ File: 'letters_in_3d.blend'
# www.blender.org
mtllib letters_L.mtl
o Text
v 0.639433 -0.176548 0.170929
v 0.640631 -0.264504 0.173409
v 0.234681 -0.269946 0.176636
v 0.225390 0.411719 0.157412
v 0.323378 0.413033 0.156633
v 0.331470 -0.180676 0.173376
v 0.637738 -0.182885 -0.052975
v 0.638937 -0.270842 -0.050495
v 0.232986 -0.276284 -0.047268
v 0.223695 0.405382 -0.066492
v 0.321683 0.406695 -0.067271
v 0.329775 -0.187013 -0.050528
v 0.637738 -0.182885 -0.052975
v 0.643668 -0.176762 -0.051585
v 0.648033 -0.172189 -0.047353
v 0.649664 -0.170391 -0.041414
v 0.638937 -0.270842 -0.050495
v 0.645030 -0.276713 -0.048766
v 0.649515 -0.280920 -0.044287
v 0.651190 -0.282336 -0.038257
v 0.232986 -0.276284 -0.047268
v 0.227081 -0.282316 -0.045445
v 0.222782 -0.286641 -0.040895
v 0.221242 -0.288099 -0.034840
v 0.223695 0.405382 -0.066492
v 0.217627 0.411344 -0.065007
v 0.213208 0.415800 -0.060705
v 0.211624 0.417555 -0.054740
v 0.321683 0.406695 -0.067271
v 0.327613 0.412818 -0.065881
v 0.331978 0.417392 -0.061649
v 0.333609 0.419190 -0.055710
v 0.329775 -0.187013 -0.050528
v 0.335705 -0.180890 -0.049137
v 0.340070 -0.176317 -0.044906
v 0.341701 -0.174519 -0.038966
v 0.649664 -0.170391 -0.041414
v 0.651177 -0.164732 0.158500
v 0.651190 -0.282336 -0.038257
v 0.652703 -0.276677 0.161657
v 0.221242 -0.288099 -0.034840
v 0.222755 -0.282441 0.165074
v 0.211624 0.417555 -0.054740
v 0.213137 0.423213 0.145174
v 0.333609 0.419190 -0.055710
v 0.335122 0.424848 0.144204
v 0.341701 -0.174519 -0.038966
v 0.343214 -0.168860 0.160948
v 0.651177 -0.164732 0.158500
v 0.649637 -0.166191 0.164556
v 0.645338 -0.170516 0.169105
v 0.639433 -0.176548 0.170929
v 0.652703 -0.276677 0.161657
v 0.651119 -0.274922 0.167622
v 0.646700 -0.270467 0.171924
v 0.640631 -0.264504 0.173409
v 0.222755 -0.282441 0.165074
v 0.224386 -0.280643 0.171014
v 0.228751 -0.276069 0.175245
v 0.234681 -0.269946 0.176636
v 0.213137 0.423213 0.145174
v 0.214812 0.421798 0.151204
v 0.219297 0.417591 0.155683
v 0.225390 0.411719 0.157412
v 0.335122 0.424848 0.144204
v 0.333582 0.423390 0.150260
v 0.329283 0.419065 0.154809
v 0.323378 0.413033 0.156633
v 0.343214 -0.168860 0.160948
v 0.341674 -0.170319 0.167003
v 0.337375 -0.174644 0.171552
v 0.331470 -0.180676 0.173376
vn 0.0076 0.0283 0.9996
vn -0.0076 -0.0283 -0.9996
vn 0.3219 0.3125 -0.8937
vn 0.3310 -0.3535 -0.8749
vn 0.1259 -0.1576 -0.9794
vn 0.1224 0.1055 -0.9868
vn 0.5763 0.5805 -0.5752
vn 0.5923 -0.5961 -0.5421
vn 0.6494 0.6597 -0.3781
vn 0.6675 -0.6620 -0.3408
vn -0.3352 -0.3624 -0.8696
vn -0.1372 -0.1611 -0.9773
vn -0.5846 -0.6118 -0.5327
vn -0.6548 -0.6798 -0.3303
vn -0.3443 0.3036 -0.8884
vn -0.1408 0.1020 -0.9847
vn -0.6007 0.5647 -0.5659
vn -0.6728 0.6420 -0.3676
vn 0.1984 0.1842 -0.9626
vn 0.5012 0.5007 -0.7058
vn 0.6974 0.7162 -0.0255
vn 0.7166 -0.6973 0.0143
vn -0.6974 -0.7162 0.0255
vn -0.7166 0.6973 -0.0143
vn 0.5846 0.6118 0.5327
vn 0.6007 -0.5647 0.5659
vn 0.6728 -0.6420 0.3676
vn 0.6548 0.6798 0.3303
vn 0.3352 0.3624 0.8696
vn 0.3443 -0.3036 0.8884
vn 0.1372 0.1611 0.9773
vn 0.1408 -0.1020 0.9847
vn -0.5763 -0.5805 0.5752
vn -0.6494 -0.6597 0.3781
vn -0.3219 -0.3125 0.8937
vn -0.1224 -0.1055 0.9868
vn -0.5923 0.5961 0.5421
vn -0.6675 0.6620 0.3408
vn -0.3310 0.3535 0.8749
vn -0.1259 0.1576 0.9794
vn 0.5116 0.5395 0.6687
vn 0.2129 0.2382 0.9476
usemtl Material.001
s off
f 3//1 5//1 4//1
f 3//1 6//1 5//1
f 3//1 1//1 6//1
f 3//1 2//1 1//1
f 11//2 9//2 10//2
f 12//2 9//2 11//2
f 7//2 9//2 12//2
f 8//2 9//2 7//2
s 1
f 14//3 18//4 17//5 13//6
f 15//7 19//8 18//4 14//3
f 16//9 20//10 19//8 15//7
f 18//4 22//11 21//12 17//5
f 19//8 23//13 22//11 18//4
f 20//10 24//14 23//13 19//8
f 22//11 26//15 25//16 21//12
f 23//13 27//17 26//15 22//11
f 24//14 28//18 27//17 23//13
f 26//15 30//3 29//6 25//16
f 27//17 31//7 30//3 26//15
f 28//18 32//9 31//7 27//17
f 30//3 34//19 33//6 29//6
f 31//7 35//20 34//19 30//3
f 32//9 36//9 35//20 31//7
f 34//19 14//3 13//6 33//6
f 35//20 15//7 14//3 34//19
f 36//9 16//9 15//7 35//20
f 38//21 40//22 39//22 37//21
f 40//22 42//23 41//23 39//22
f 42//23 44//24 43//24 41//23
f 44//24 46//21 45//21 43//24
f 46//21 48//21 47//21 45//21
f 48//21 38//21 37//21 47//21
f 50//25 54//26 53//27 49//28
f 51//29 55//30 54//26 50//25
f 52//31 56//32 55//30 51//29
f 54//26 58//33 57//34 53//27
f 55//30 59//35 58//33 54//26
f 56//32 60//36 59//35 55//30
f 58//33 62//37 61//38 57//34
f 59//35 63//39 62//37 58//33
f 60//36 64//40 63//39 59//35
f 62//37 66//25 65//28 61//38
f 63//39 67//29 66//25 62//37
f 64//40 68//31 67//29 63//39
f 66//25 70//41 69//28 65//28
f 67//29 71//42 70//41 66//25
f 68//31 72//31 71//42 67//29
f 70//41 50//25 49//28 69//28
f 71//42 51//29 50//25 70//41
f 72//31 52//31 51//29 71//42
