# Blender v2.79 (sub 0) OBJ File: 'letters_in_3d.blend'
# www.blender.org
mtllib letters_E.mtl
o Text
v 0.325577 0.325090 0.159105
v 0.328383 0.119190 0.164912
v 0.607349 0.122930 0.162695
v 0.608548 0.034973 0.165175
v 0.329582 0.031234 0.167393
v 0.332470 -0.180663 0.173368
v 0.630434 -0.176668 0.171000
v 0.631632 -0.264625 0.173481
v 0.235680 -0.269933 0.176628
v 0.226390 0.411733 0.157404
v 0.613343 0.416920 0.154328
v 0.614542 0.328963 0.156809
v 0.323882 0.318752 -0.064799
v 0.326688 0.112853 -0.058992
v 0.605655 0.116593 -0.061209
v 0.606853 0.028636 -0.058729
v 0.327887 0.024896 -0.056511
v 0.330775 -0.187000 -0.050536
v 0.628739 -0.183006 -0.052904
v 0.629938 -0.270963 -0.050423
v 0.233986 -0.276270 -0.047276
v 0.224695 0.405395 -0.066500
v 0.611648 0.410582 -0.069576
v 0.612847 0.322626 -0.067095
v 0.323882 0.318752 -0.064799
v 0.329975 0.312881 -0.063070
v 0.334460 0.308674 -0.058591
v 0.336135 0.307258 -0.052561
v 0.326688 0.112853 -0.058992
v 0.332618 0.118976 -0.057602
v 0.336983 0.123549 -0.053370
v 0.338614 0.125347 -0.047431
v 0.605655 0.116593 -0.061209
v 0.611584 0.122715 -0.059819
v 0.615949 0.127289 -0.055587
v 0.617580 0.129087 -0.049648
v 0.606853 0.028636 -0.058729
v 0.612947 0.022764 -0.057000
v 0.617431 0.018558 -0.052521
v 0.619106 0.017142 -0.046491
v 0.327887 0.024896 -0.056511
v 0.333980 0.019025 -0.054783
v 0.338465 0.014818 -0.050304
v 0.340140 0.013402 -0.044274
v 0.330775 -0.187000 -0.050536
v 0.336705 -0.180877 -0.049145
v 0.341070 -0.176304 -0.044914
v 0.342701 -0.174506 -0.038974
v 0.628739 -0.183006 -0.052904
v 0.634669 -0.176883 -0.051514
v 0.639034 -0.172309 -0.047282
v 0.640665 -0.170511 -0.041342
v 0.629938 -0.270963 -0.050423
v 0.636031 -0.276834 -0.048695
v 0.640516 -0.281041 -0.044215
v 0.642191 -0.282456 -0.038185
v 0.233986 -0.276270 -0.047276
v 0.228081 -0.282302 -0.045453
v 0.223782 -0.286627 -0.040903
v 0.222242 -0.288086 -0.034848
v 0.224695 0.405395 -0.066500
v 0.218626 0.411357 -0.065015
v 0.214208 0.415813 -0.060713
v 0.212624 0.417568 -0.054748
v 0.611648 0.410582 -0.069576
v 0.617578 0.416705 -0.068185
v 0.621943 0.421279 -0.063954
v 0.623574 0.423077 -0.058014
v 0.612847 0.322626 -0.067095
v 0.618940 0.316754 -0.065367
v 0.623425 0.312547 -0.060887
v 0.625100 0.311132 -0.054857
v 0.336135 0.307258 -0.052561
v 0.337648 0.312917 0.147353
v 0.338614 0.125347 -0.047431
v 0.340127 0.131006 0.152484
v 0.617580 0.129087 -0.049648
v 0.619093 0.134746 0.150266
v 0.619106 0.017142 -0.046491
v 0.620619 0.022800 0.153423
v 0.340140 0.013402 -0.044274
v 0.341653 0.019061 0.155641
v 0.342701 -0.174506 -0.038974
v 0.344214 -0.168847 0.160940
v 0.640665 -0.170511 -0.041342
v 0.642178 -0.164853 0.158572
v 0.642191 -0.282456 -0.038185
v 0.643704 -0.276798 0.161729
v 0.222242 -0.288086 -0.034848
v 0.223755 -0.282427 0.165066
v 0.212624 0.417568 -0.054748
v 0.214137 0.423227 0.145166
v 0.623574 0.423077 -0.058014
v 0.625087 0.428735 0.141900
v 0.625100 0.311132 -0.054857
v 0.626613 0.316790 0.145057
v 0.337648 0.312917 0.147353
v 0.336064 0.314672 0.153318
v 0.331646 0.319127 0.157620
v 0.325577 0.325090 0.159105
v 0.340127 0.131006 0.152484
v 0.338587 0.129547 0.158539
v 0.334288 0.125222 0.163088
v 0.328383 0.119190 0.164912
v 0.619093 0.134746 0.150266
v 0.617553 0.133287 0.156322
v 0.613254 0.128962 0.160871
v 0.607349 0.122930 0.162695
v 0.620619 0.022800 0.153423
v 0.619035 0.024556 0.159388
v 0.614617 0.029011 0.163690
v 0.608548 0.034973 0.165175
v 0.341653 0.019061 0.155641
v 0.340069 0.020816 0.161605
v 0.335651 0.025271 0.165907
v 0.329582 0.031234 0.167393
v 0.344214 -0.168847 0.160940
v 0.342674 -0.170306 0.166995
v 0.338375 -0.174631 0.171545
v 0.332470 -0.180663 0.173368
v 0.642178 -0.164853 0.158572
v 0.640638 -0.166311 0.164627
v 0.636339 -0.170636 0.169176
v 0.630434 -0.176668 0.171000
v 0.643704 -0.276798 0.161729
v 0.642120 -0.275043 0.167694
v 0.637701 -0.270587 0.171995
v 0.631632 -0.264625 0.173481
v 0.223755 -0.282427 0.165066
v 0.225386 -0.280629 0.171006
v 0.229751 -0.276056 0.175237
v 0.235680 -0.269933 0.176628
v 0.214137 0.423227 0.145166
v 0.215812 0.421811 0.151196
v 0.220297 0.417604 0.155675
v 0.226390 0.411733 0.157404
v 0.625087 0.428735 0.141900
v 0.623547 0.427277 0.147955
v 0.619248 0.422952 0.152504
v 0.613343 0.416920 0.154328
v 0.626613 0.316790 0.145057
v 0.625029 0.318545 0.151022
v 0.620610 0.323001 0.155323
v 0.614542 0.328963 0.156809
vn 0.0076 0.0283 0.9996
vn -0.0076 -0.0283 -0.9996
vn 0.2041 -0.2326 -0.9509
vn 0.1984 0.1842 -0.9626
vn 0.1224 0.1055 -0.9868
vn 0.1259 -0.1576 -0.9794
vn 0.5152 -0.5258 -0.6768
vn 0.5012 0.5007 -0.7058
vn 0.6675 -0.6620 -0.3408
vn 0.6494 0.6597 -0.3781
vn 0.3219 0.3125 -0.8937
vn 0.5763 0.5805 -0.5752
vn 0.3310 -0.3535 -0.8749
vn 0.5923 -0.5961 -0.5421
vn 0.6674 -0.6620 -0.3408
vn -0.3352 -0.3624 -0.8696
vn -0.1372 -0.1611 -0.9773
vn -0.5846 -0.6118 -0.5327
vn -0.6548 -0.6798 -0.3303
vn -0.3443 0.3036 -0.8884
vn -0.1408 0.1020 -0.9847
vn -0.6007 0.5647 -0.5659
vn -0.6728 0.6420 -0.3676
vn 0.7166 -0.6973 0.0143
vn 0.6974 0.7162 -0.0255
vn -0.6974 -0.7162 0.0255
vn -0.7166 0.6973 -0.0143
vn 0.5256 -0.4869 0.6976
vn 0.5116 0.5395 0.6687
vn 0.6548 0.6798 0.3303
vn 0.6728 -0.6420 0.3676
vn 0.2185 -0.1786 0.9593
vn 0.2129 0.2382 0.9476
vn 0.1408 -0.1020 0.9847
vn 0.1372 0.1611 0.9773
vn 0.5846 0.6118 0.5327
vn 0.3352 0.3624 0.8696
vn 0.6007 -0.5647 0.5659
vn 0.3443 -0.3036 0.8884
vn 0.5847 0.6118 0.5327
vn -0.5763 -0.5805 0.5752
vn -0.6494 -0.6597 0.3781
vn -0.3219 -0.3125 0.8937
vn -0.1224 -0.1055 0.9868
vn -0.5923 0.5961 0.5421
vn -0.6675 0.6620 0.3408
vn -0.3310 0.3535 0.8749
vn -0.1259 0.1576 0.9794
usemtl Material.001
s off
f 9//1 1//1 10//1
f 1//1 11//1 10//1
f 1//1 12//1 11//1
f 9//1 2//1 1//1
f 9//1 5//1 2//1
f 5//1 3//1 2//1
f 5//1 4//1 3//1
f 9//1 6//1 5//1
f 9//1 7//1 6//1
f 9//1 8//1 7//1
f 13//2 21//2 22//2
f 23//2 13//2 22//2
f 24//2 13//2 23//2
f 14//2 21//2 13//2
f 17//2 21//2 14//2
f 15//2 17//2 14//2
f 16//2 17//2 15//2
f 18//2 21//2 17//2
f 19//2 21//2 18//2
f 20//2 21//2 19//2
s 1
f 26//3 30//4 29//5 25//6
f 27//7 31//8 30//4 26//3
f 28//9 32//10 31//8 27//7
f 30//4 34//11 33//5 29//5
f 31//8 35//12 34//11 30//4
f 32//10 36//10 35//12 31//8
f 34//11 38//13 37//6 33//5
f 35//12 39//14 38//13 34//11
f 36//10 40//9 39//14 35//12
f 38//13 42//3 41//6 37//6
f 39//14 43//7 42//3 38//13
f 40//9 44//9 43//7 39//14
f 42//3 46//4 45//5 41//6
f 43//7 47//8 46//4 42//3
f 44//9 48//10 47//8 43//7
f 46//4 50//11 49//5 45//5
f 47//8 51//12 50//11 46//4
f 48//10 52//10 51//12 47//8
f 50//11 54//13 53//6 49//5
f 51//12 55//14 54//13 50//11
f 52//10 56//15 55//14 51//12
f 54//13 58//16 57//17 53//6
f 55//14 59//18 58//16 54//13
f 56//15 60//19 59//18 55//14
f 58//16 62//20 61//21 57//17
f 59//18 63//22 62//20 58//16
f 60//19 64//23 63//22 59//18
f 62//20 66//11 65//5 61//21
f 63//22 67//12 66//11 62//20
f 64//23 68//10 67//12 63//22
f 66//11 70//13 69//6 65//5
f 67//12 71//14 70//13 66//11
f 68//10 72//9 71//14 67//12
f 70//13 26//3 25//6 69//6
f 71//14 27//7 26//3 70//13
f 72//9 28//9 27//7 71//14
f 74//24 76//25 75//25 73//24
f 76//25 78//25 77//25 75//25
f 78//25 80//24 79//24 77//25
f 80//24 82//24 81//24 79//24
f 82//24 84//25 83//25 81//24
f 84//25 86//25 85//25 83//25
f 86//25 88//24 87//24 85//25
f 88//24 90//26 89//26 87//24
f 90//26 92//27 91//27 89//26
f 92//27 94//25 93//25 91//27
f 94//25 96//24 95//24 93//25
f 96//24 74//24 73//24 95//24
f 98//28 102//29 101//30 97//31
f 99//32 103//33 102//29 98//28
f 100//34 104//35 103//33 99//32
f 102//29 106//36 105//30 101//30
f 103//33 107//37 106//36 102//29
f 104//35 108//35 107//37 103//33
f 106//36 110//38 109//31 105//30
f 107//37 111//39 110//38 106//36
f 108//35 112//34 111//39 107//37
f 110//38 114//28 113//31 109//31
f 111//39 115//32 114//28 110//38
f 112//34 116//34 115//32 111//39
f 114//28 118//29 117//30 113//31
f 115//32 119//33 118//29 114//28
f 116//34 120//35 119//33 115//32
f 118//29 122//40 121//30 117//30
f 119//33 123//37 122//40 118//29
f 120//35 124//35 123//37 119//33
f 122//40 126//38 125//31 121//30
f 123//37 127//39 126//38 122//40
f 124//35 128//34 127//39 123//37
f 126//38 130//41 129//42 125//31
f 127//39 131//43 130//41 126//38
f 128//34 132//44 131//43 127//39
f 130//41 134//45 133//46 129//42
f 131//43 135//47 134//45 130//41
f 132//44 136//48 135//47 131//43
f 134//45 138//36 137//30 133//46
f 135//47 139//37 138//36 134//45
f 136//48 140//35 139//37 135//47
f 138//36 142//38 141//31 137//30
f 139//37 143//39 142//38 138//36
f 140//35 144//34 143//39 139//37
f 142//38 98//28 97//31 141//31
f 143//39 99//32 98//28 142//38
f 144//34 100//34 99//32 143//39
