# Blender v2.79 (sub 0) OBJ File: 'letters_in_3d.blend'
# www.blender.org
mtllib letters_M.mtl
o Text
v 0.771615 -0.262749 0.172368
v 0.764382 0.267991 0.157401
v 0.762382 0.267964 0.157416
v 0.556004 0.001279 0.166527
v 0.540006 0.001065 0.166654
v 0.326435 0.262120 0.160881
v 0.324435 0.262094 0.160897
v 0.331669 -0.268646 0.175865
v 0.233681 -0.269960 0.176644
v 0.224390 0.411706 0.157420
v 0.316379 0.412939 0.156688
v 0.546166 0.136106 0.162785
v 0.769324 0.419011 0.153089
v 0.860313 0.420231 0.152365
v 0.869604 -0.261435 0.171589
v 0.769921 -0.269086 -0.051536
v 0.762687 0.261654 -0.066503
v 0.760687 0.261627 -0.066487
v 0.554309 -0.005059 -0.057377
v 0.538311 -0.005273 -0.057250
v 0.324740 0.255783 -0.063023
v 0.322741 0.255756 -0.063007
v 0.329974 -0.274984 -0.048039
v 0.231986 -0.276297 -0.047260
v 0.222695 0.405368 -0.066484
v 0.314684 0.406602 -0.067216
v 0.544471 0.129768 -0.061119
v 0.767629 0.412673 -0.070815
v 0.858618 0.413893 -0.071538
v 0.867909 -0.267773 -0.052314
v 0.769921 -0.269086 -0.051536
v 0.764015 -0.275118 -0.049712
v 0.759717 -0.279443 -0.045163
v 0.758177 -0.280902 -0.039107
v 0.762687 0.261654 -0.066503
v 0.756782 0.255622 -0.064680
v 0.752483 0.251297 -0.060130
v 0.750943 0.249838 -0.054075
v 0.760687 0.261627 -0.066487
v 0.763675 0.255714 -0.064734
v 0.765886 0.251477 -0.060237
v 0.766729 0.250050 -0.054200
v 0.554309 -0.005059 -0.057377
v 0.557297 -0.010971 -0.055624
v 0.559508 -0.015209 -0.051127
v 0.560351 -0.016636 -0.045090
v 0.538311 -0.005273 -0.057250
v 0.535511 -0.011263 -0.055451
v 0.533486 -0.015558 -0.050920
v 0.532778 -0.017005 -0.044871
v 0.324740 0.255783 -0.063023
v 0.321941 0.249792 -0.061224
v 0.319915 0.245498 -0.056693
v 0.319207 0.244051 -0.050644
v 0.322741 0.255756 -0.063007
v 0.328834 0.249885 -0.061278
v 0.333319 0.245678 -0.056799
v 0.334993 0.244262 -0.050769
v 0.329974 -0.274984 -0.048039
v 0.336067 -0.280855 -0.046311
v 0.340552 -0.285062 -0.041831
v 0.342227 -0.286477 -0.035801
v 0.231986 -0.276297 -0.047260
v 0.226081 -0.282329 -0.045437
v 0.221782 -0.286654 -0.040887
v 0.220242 -0.288113 -0.034832
v 0.222695 0.405368 -0.066484
v 0.216627 0.411331 -0.064999
v 0.212208 0.415786 -0.060697
v 0.210624 0.417541 -0.054732
v 0.314684 0.406602 -0.067216
v 0.317482 0.412683 -0.065800
v 0.319555 0.417225 -0.061550
v 0.320346 0.419012 -0.055604
v 0.544471 0.129768 -0.061119
v 0.544364 0.139349 -0.059781
v 0.544309 0.146454 -0.055587
v 0.544323 0.149179 -0.049662
v 0.767629 0.412673 -0.070815
v 0.764700 0.418678 -0.069355
v 0.762581 0.423164 -0.065071
v 0.761838 0.424930 -0.059113
v 0.858618 0.413893 -0.071538
v 0.864548 0.420016 -0.070148
v 0.868913 0.424589 -0.065917
v 0.870544 0.426388 -0.059977
v 0.867909 -0.267773 -0.052314
v 0.874002 -0.273644 -0.050586
v 0.878487 -0.277851 -0.046107
v 0.880162 -0.279266 -0.040077
v 0.758177 -0.280902 -0.039107
v 0.759690 -0.275243 0.160807
v 0.750943 0.249838 -0.054075
v 0.752456 0.255497 0.145839
v 0.766729 0.250050 -0.054200
v 0.768242 0.255708 0.145714
v 0.560351 -0.016636 -0.045090
v 0.561864 -0.010977 0.154824
v 0.532778 -0.017005 -0.044871
v 0.534291 -0.011347 0.155043
v 0.319207 0.244051 -0.050644
v 0.320720 0.249709 0.149271
v 0.334993 0.244262 -0.050769
v 0.336506 0.249921 0.149145
v 0.342227 -0.286477 -0.035801
v 0.343740 -0.280819 0.164113
v 0.220242 -0.288113 -0.034832
v 0.221755 -0.282454 0.165082
v 0.210624 0.417541 -0.054732
v 0.212137 0.423200 0.145182
v 0.320346 0.419012 -0.055604
v 0.321859 0.424671 0.144310
v 0.544323 0.149179 -0.049662
v 0.545836 0.154837 0.150252
v 0.761838 0.424930 -0.059113
v 0.763351 0.430589 0.140801
v 0.870544 0.426388 -0.059977
v 0.872057 0.432046 0.139937
v 0.880162 -0.279266 -0.040077
v 0.881675 -0.273608 0.159837
v 0.759690 -0.275243 0.160807
v 0.761321 -0.273445 0.166746
v 0.765686 -0.268872 0.170978
v 0.771615 -0.262749 0.172368
v 0.752456 0.255497 0.145839
v 0.754087 0.257295 0.151779
v 0.758452 0.261868 0.156010
v 0.764382 0.267991 0.157401
v 0.768242 0.255708 0.145714
v 0.767490 0.257475 0.151672
v 0.765345 0.261961 0.155956
v 0.762382 0.267964 0.157416
v 0.561864 -0.010977 0.154824
v 0.561112 -0.009211 0.160782
v 0.558967 -0.004725 0.165066
v 0.556004 0.001279 0.166527
v 0.534291 -0.011347 0.155043
v 0.535090 -0.009560 0.160989
v 0.537182 -0.005017 0.165239
v 0.540006 0.001065 0.166654
v 0.320720 0.249709 0.149271
v 0.321519 0.251496 0.155217
v 0.323611 0.256039 0.159466
v 0.326435 0.262120 0.160881
v 0.336506 0.249921 0.149145
v 0.334922 0.251676 0.155110
v 0.330504 0.256131 0.159412
v 0.324435 0.262094 0.160897
v 0.343740 -0.280819 0.164113
v 0.342156 -0.279064 0.170078
v 0.337738 -0.274608 0.174379
v 0.331669 -0.268646 0.175865
v 0.221755 -0.282454 0.165082
v 0.223386 -0.280656 0.171022
v 0.227751 -0.276083 0.175253
v 0.233681 -0.269960 0.176644
v 0.212137 0.423200 0.145182
v 0.213812 0.421784 0.151212
v 0.218297 0.417577 0.155691
v 0.224390 0.411706 0.157420
v 0.321859 0.424671 0.144310
v 0.321158 0.423223 0.150359
v 0.319152 0.418929 0.154890
v 0.316379 0.412939 0.156688
v 0.545836 0.154837 0.150252
v 0.545913 0.152452 0.156322
v 0.546034 0.145596 0.160909
v 0.546166 0.136106 0.162785
v 0.763351 0.430589 0.140801
v 0.764184 0.429162 0.146838
v 0.766371 0.424924 0.151335
v 0.769324 0.419011 0.153089
v 0.872057 0.432046 0.139937
v 0.870517 0.430587 0.145993
v 0.866218 0.426263 0.150542
v 0.860313 0.420231 0.152365
v 0.881675 -0.273608 0.159837
v 0.880091 -0.271853 0.165802
v 0.875672 -0.267397 0.170104
v 0.869604 -0.261435 0.171589
vn 0.0076 0.0283 0.9996
vn -0.0076 -0.0283 -0.9996
vn -0.3352 -0.3624 -0.8696
vn -0.5802 0.7614 -0.2891
vn -0.7166 0.6973 -0.0143
vn -0.1372 -0.1611 -0.9773
vn -0.5846 -0.6118 -0.5327
vn -0.7520 0.6258 -0.2067
vn -0.6548 -0.6798 -0.3303
vn -0.8175 0.5716 -0.0702
vn 0.7783 0.5549 -0.2936
vn 0.8947 0.4462 -0.0194
vn 0.9154 0.3552 -0.1892
vn 0.9537 0.2940 -0.0636
vn 0.2246 -0.4869 -0.8441
vn 0.0974 -0.2373 -0.9665
vn 0.3823 -0.7875 -0.4834
vn 0.4259 -0.8654 -0.2640
vn -0.2248 -0.4929 -0.8405
vn -0.1064 -0.2401 -0.9649
vn -0.3687 -0.7976 -0.4774
vn -0.4068 -0.8765 -0.2574
vn -0.7975 0.5338 -0.2811
vn -0.9065 0.4222 -0.0051
vn -0.9275 0.3305 -0.1745
vn -0.9621 0.2683 -0.0484
vn 0.5549 0.7767 -0.2981
vn 0.6974 0.7162 -0.0255
vn 0.7316 0.6457 -0.2185
vn 0.8007 0.5933 -0.0831
vn 0.3310 -0.3535 -0.8749
vn 0.1259 -0.1576 -0.9794
vn 0.5923 -0.5961 -0.5421
vn 0.6675 -0.6620 -0.3408
vn -0.3443 0.3036 -0.8884
vn -0.1408 0.1020 -0.9847
vn -0.6007 0.5647 -0.5659
vn -0.6728 0.6420 -0.3676
vn 0.2103 0.4454 -0.8703
vn 0.0911 0.1858 -0.9784
vn 0.3584 0.7706 -0.5270
vn 0.3994 0.8620 -0.3122
vn -0.0105 0.2261 -0.9740
vn -0.0095 0.1382 -0.9904
vn -0.0140 0.6548 -0.7557
vn -0.0145 0.9084 -0.4177
vn -0.2355 0.4397 -0.8667
vn -0.1114 0.1833 -0.9767
vn -0.3865 0.7610 -0.5210
vn -0.4263 0.8514 -0.3056
vn 0.3219 0.3125 -0.8937
vn 0.1224 0.1055 -0.9868
vn 0.5763 0.5805 -0.5752
vn 0.6494 0.6597 -0.3781
vn -0.6974 -0.7162 0.0255
vn 0.8947 0.4463 -0.0194
vn 0.4466 -0.8944 0.0219
vn -0.4221 -0.9061 0.0288
vn -0.9065 0.4221 -0.0051
vn 0.7166 -0.6973 0.0143
vn 0.4189 0.9076 -0.0288
vn -0.0125 0.9995 -0.0282
vn -0.4425 0.8965 -0.0220
vn -0.5763 -0.5805 0.5752
vn -0.7491 0.6368 0.1823
vn -0.8166 0.5750 0.0501
vn -0.6494 -0.6597 0.3781
vn -0.3219 -0.3125 0.8937
vn -0.5760 0.7768 0.2543
vn -0.1224 -0.1055 0.9868
vn -0.7167 0.6973 -0.0143
vn 0.9180 0.3649 0.1549
vn 0.9544 0.2967 0.0325
vn 0.7824 0.5703 0.2499
vn 0.8947 0.4462 -0.0193
vn 0.3899 -0.7591 0.5213
vn 0.4302 -0.8492 0.3060
vn 0.2375 -0.4384 0.8668
vn 0.1121 -0.1823 0.9768
vn -0.3611 -0.7691 0.5272
vn -0.4024 -0.8604 0.3126
vn -0.2119 -0.4444 0.8704
vn -0.0916 -0.1851 0.9784
vn -0.9249 0.3402 0.1696
vn -0.9614 0.2711 0.0477
vn -0.7934 0.5492 0.2625
vn 0.7345 0.6567 0.1705
vn 0.8016 0.5967 0.0373
vn 0.5590 0.7920 0.2453
vn 0.6974 0.7162 -0.0256
vn 0.6007 -0.5647 0.5659
vn 0.6728 -0.6420 0.3676
vn 0.3443 -0.3036 0.8884
vn 0.1408 -0.1020 0.9847
vn -0.5923 0.5961 0.5421
vn -0.6675 0.6620 0.3408
vn -0.3310 0.3535 0.8749
vn -0.1259 0.1576 0.9794
vn 0.3660 0.7990 0.4771
vn 0.4037 0.8780 0.2569
vn 0.2232 0.4938 0.8404
vn 0.1058 0.2408 0.9648
vn -0.0029 0.6965 0.7176
vn -0.0086 0.9306 0.3658
vn 0.0041 0.2808 0.9597
vn 0.0054 0.1940 0.9810
vn -0.3789 0.7895 0.4829
vn -0.4220 0.8675 0.2633
vn -0.2225 0.4881 0.8439
vn -0.0967 0.2383 0.9664
vn 0.5846 0.6118 0.5327
vn 0.6548 0.6798 0.3303
vn 0.3352 0.3624 0.8696
vn 0.1372 0.1611 0.9773
usemtl Material.001
s off
f 9//1 11//1 10//1
f 9//1 7//1 11//1
f 7//1 6//1 11//1
f 6//1 12//1 11//1
f 12//1 14//1 13//1
f 12//1 3//1 14//1
f 3//1 2//1 14//1
f 2//1 15//1 14//1
f 9//1 8//1 7//1
f 5//1 12//1 6//1
f 12//1 4//1 3//1
f 1//1 15//1 2//1
f 5//1 4//1 12//1
f 26//2 24//2 25//2
f 22//2 24//2 26//2
f 21//2 22//2 26//2
f 27//2 21//2 26//2
f 29//2 27//2 28//2
f 18//2 27//2 29//2
f 17//2 18//2 29//2
f 30//2 17//2 29//2
f 23//2 24//2 22//2
f 27//2 20//2 21//2
f 19//2 27//2 18//2
f 30//2 16//2 17//2
f 19//2 20//2 27//2
s 1
f 32//3 36//4 35//5 31//6
f 33//7 37//8 36//4 32//3
f 34//9 38//10 37//8 33//7
f 36//4 40//11 39//12 35//5
f 37//8 41//13 40//11 36//4
f 38//10 42//14 41//13 37//8
f 40//11 44//15 43//16 39//12
f 41//13 45//17 44//15 40//11
f 42//14 46//18 45//17 41//13
f 44//15 48//19 47//20 43//16
f 45//17 49//21 48//19 44//15
f 46//18 50//22 49//21 45//17
f 48//19 52//23 51//24 47//20
f 49//21 53//25 52//23 48//19
f 50//22 54//26 53//25 49//21
f 52//23 56//27 55//28 51//24
f 53//25 57//29 56//27 52//23
f 54//26 58//30 57//29 53//25
f 56//27 60//31 59//32 55//28
f 57//29 61//33 60//31 56//27
f 58//30 62//34 61//33 57//29
f 60//31 64//3 63//6 59//32
f 61//33 65//7 64//3 60//31
f 62//34 66//9 65//7 61//33
f 64//3 68//35 67//36 63//6
f 65//7 69//37 68//35 64//3
f 66//9 70//38 69//37 65//7
f 68//35 72//39 71//40 67//36
f 69//37 73//41 72//39 68//35
f 70//38 74//42 73//41 69//37
f 72//39 76//43 75//44 71//40
f 73//41 77//45 76//43 72//39
f 74//42 78//46 77//45 73//41
f 76//43 80//47 79//48 75//44
f 77//45 81//49 80//47 76//43
f 78//46 82//50 81//49 77//45
f 80//47 84//51 83//52 79//48
f 81//49 85//53 84//51 80//47
f 82//50 86//54 85//53 81//49
f 84//51 88//31 87//32 83//52
f 85//53 89//33 88//31 84//51
f 86//54 90//34 89//33 85//53
f 88//31 32//3 31//6 87//32
f 89//33 33//7 32//3 88//31
f 90//34 34//9 33//7 89//33
f 92//55 94//5 93//5 91//55
f 94//5 96//56 95//56 93//5
f 96//56 98//57 97//57 95//56
f 98//57 100//58 99//58 97//57
f 100//58 102//59 101//59 99//58
f 102//59 104//28 103//28 101//59
f 104//28 106//60 105//60 103//28
f 106//60 108//55 107//55 105//60
f 108//55 110//5 109//5 107//55
f 110//5 112//61 111//61 109//5
f 112//61 114//62 113//62 111//61
f 114//62 116//63 115//63 113//62
f 116//63 118//28 117//28 115//63
f 118//28 120//60 119//60 117//28
f 120//60 92//55 91//55 119//60
f 122//64 126//65 125//66 121//67
f 123//68 127//69 126//65 122//64
f 124//70 128//71 127//69 123//68
f 126//65 130//72 129//73 125//66
f 127//69 131//74 130//72 126//65
f 128//71 132//75 131//74 127//69
f 130//72 134//76 133//77 129//73
f 131//74 135//78 134//76 130//72
f 132//75 136//79 135//78 131//74
f 134//76 138//80 137//81 133//77
f 135//78 139//82 138//80 134//76
f 136//79 140//83 139//82 135//78
f 138//80 142//84 141//85 137//81
f 139//82 143//86 142//84 138//80
f 140//83 144//59 143//86 139//82
f 142//84 146//87 145//88 141//85
f 143//86 147//89 146//87 142//84
f 144//59 148//90 147//89 143//86
f 146//87 150//91 149//92 145//88
f 147//89 151//93 150//91 146//87
f 148//90 152//94 151//93 147//89
f 150//91 154//64 153//67 149//92
f 151//93 155//68 154//64 150//91
f 152//94 156//70 155//68 151//93
f 154//64 158//95 157//96 153//67
f 155//68 159//97 158//95 154//64
f 156//70 160//98 159//97 155//68
f 158//95 162//99 161//100 157//96
f 159//97 163//101 162//99 158//95
f 160//98 164//102 163//101 159//97
f 162//99 166//103 165//104 161//100
f 163//101 167//105 166//103 162//99
f 164//102 168//106 167//105 163//101
f 166//103 170//107 169//108 165//104
f 167//105 171//109 170//107 166//103
f 168//106 172//110 171//109 167//105
f 170//107 174//111 173//112 169//108
f 171//109 175//113 174//111 170//107
f 172//110 176//114 175//113 171//109
f 174//111 178//91 177//92 173//112
f 175//113 179//93 178//91 174//111
f 176//114 180//94 179//93 175//113
f 178//91 122//64 121//67 177//92
f 179//93 123//68 122//64 178//91
f 180//94 124//70 123//68 179//93
