# Blender v2.79 (sub 0) OBJ File: 'letters_in_3d.blend'
# www.blender.org
mtllib letters_X.mtl
o Text
v 0.866604 -0.261475 0.171613
v 0.748618 -0.263057 0.172551
v 0.512805 0.015695 0.166446
v 0.281675 -0.269316 0.176262
v 0.162689 -0.270911 0.177208
v 0.451845 0.085856 0.164921
v 0.174396 0.411036 0.157817
v 0.293382 0.412631 0.156871
v 0.510898 0.155627 0.162499
v 0.720330 0.418354 0.153478
v 0.838316 0.419936 0.152540
v 0.570830 0.087451 0.163976
v 0.864909 -0.267813 -0.052291
v 0.746924 -0.269394 -0.051353
v 0.511110 0.009358 -0.057458
v 0.279980 -0.275654 -0.047642
v 0.160995 -0.277249 -0.046696
v 0.450150 0.079519 -0.058983
v 0.172702 0.404698 -0.066087
v 0.291687 0.406293 -0.067033
v 0.509203 0.149289 -0.061405
v 0.718635 0.412017 -0.070426
v 0.836621 0.413598 -0.071364
v 0.569136 0.081114 -0.059928
v 0.864909 -0.267813 -0.052291
v 0.877724 -0.273594 -0.050616
v 0.887129 -0.277735 -0.046175
v 0.890605 -0.279126 -0.040160
v 0.746924 -0.269394 -0.051353
v 0.744184 -0.275384 -0.049554
v 0.742204 -0.279678 -0.045024
v 0.741512 -0.281125 -0.038975
v 0.511110 0.009358 -0.057458
v 0.511221 -0.000001 -0.055586
v 0.511326 -0.006760 -0.051001
v 0.511398 -0.009110 -0.044933
v 0.279980 -0.275654 -0.047642
v 0.282884 -0.281568 -0.045888
v 0.285034 -0.285806 -0.041390
v 0.285854 -0.287233 -0.035353
v 0.160995 -0.277249 -0.046696
v 0.148285 -0.283372 -0.044818
v 0.139004 -0.287764 -0.040230
v 0.135641 -0.289247 -0.034160
v 0.450150 0.079519 -0.058983
v 0.442361 0.079467 -0.057314
v 0.436683 0.079520 -0.052878
v 0.434638 0.079663 -0.046864
v 0.172702 0.404698 -0.066087
v 0.159858 0.410570 -0.064548
v 0.150480 0.414959 -0.060207
v 0.147081 0.416689 -0.054227
v 0.291687 0.406293 -0.067033
v 0.294450 0.412374 -0.065617
v 0.296496 0.416916 -0.061367
v 0.297279 0.418703 -0.055421
v 0.509203 0.149289 -0.061405
v 0.509076 0.158784 -0.060064
v 0.509007 0.165826 -0.055869
v 0.509014 0.168528 -0.049942
v 0.718635 0.412017 -0.070426
v 0.715725 0.418021 -0.068965
v 0.713619 0.422508 -0.064682
v 0.712881 0.424274 -0.058724
v 0.836621 0.413598 -0.071364
v 0.849295 0.419812 -0.070027
v 0.858598 0.424451 -0.065835
v 0.862036 0.426274 -0.059910
v 0.569136 0.081114 -0.059928
v 0.576928 0.081258 -0.058383
v 0.582656 0.081455 -0.054038
v 0.584786 0.081651 -0.048057
v 0.890605 -0.279126 -0.040160
v 0.892118 -0.273468 0.159754
v 0.741512 -0.281125 -0.038975
v 0.743025 -0.275466 0.160939
v 0.511398 -0.009110 -0.044933
v 0.512911 -0.003452 0.154982
v 0.285854 -0.287233 -0.035353
v 0.287367 -0.281575 0.164561
v 0.135641 -0.289247 -0.034160
v 0.137154 -0.283588 0.165755
v 0.434638 0.079663 -0.046864
v 0.436151 0.085322 0.153050
v 0.147081 0.416689 -0.054227
v 0.148594 0.422348 0.145687
v 0.297279 0.418703 -0.055421
v 0.298792 0.424361 0.144493
v 0.509014 0.168528 -0.049942
v 0.510527 0.174187 0.149972
v 0.712881 0.424274 -0.058724
v 0.714394 0.429933 0.141190
v 0.862036 0.426274 -0.059910
v 0.863549 0.431932 0.140005
v 0.584786 0.081651 -0.048057
v 0.586299 0.087309 0.151857
v 0.892118 -0.273468 0.159754
v 0.888733 -0.271737 0.165734
v 0.879394 -0.267347 0.170074
v 0.866604 -0.261475 0.171613
v 0.743025 -0.275466 0.160939
v 0.743807 -0.273680 0.166885
v 0.745855 -0.269137 0.171136
v 0.748618 -0.263057 0.172551
v 0.512911 -0.003452 0.154982
v 0.512930 -0.000762 0.160908
v 0.512891 0.006246 0.165104
v 0.512805 0.015695 0.166446
v 0.287367 -0.281575 0.164561
v 0.286638 -0.279808 0.170519
v 0.284554 -0.275321 0.174802
v 0.281675 -0.269316 0.176262
v 0.137154 -0.283588 0.165755
v 0.140608 -0.281766 0.171679
v 0.149955 -0.277126 0.175872
v 0.162689 -0.270911 0.177208
v 0.436151 0.085322 0.153050
v 0.438287 0.085518 0.159031
v 0.444031 0.085713 0.163376
v 0.451845 0.085856 0.164921
v 0.148594 0.422348 0.145687
v 0.152084 0.420957 0.151702
v 0.161528 0.416816 0.156142
v 0.174396 0.411036 0.157817
v 0.298792 0.424361 0.144493
v 0.298100 0.422914 0.150542
v 0.296120 0.418620 0.155073
v 0.293382 0.412631 0.156871
v 0.510527 0.174187 0.149972
v 0.510610 0.171824 0.156041
v 0.510746 0.165031 0.160626
v 0.510898 0.155627 0.162499
v 0.714394 0.429933 0.141190
v 0.715223 0.428506 0.147227
v 0.717395 0.424268 0.151724
v 0.720330 0.418354 0.153478
v 0.863549 0.431932 0.140005
v 0.860202 0.430449 0.146074
v 0.850966 0.426058 0.150663
v 0.838316 0.419936 0.152540
v 0.586299 0.087309 0.151857
v 0.584260 0.087453 0.157871
v 0.578598 0.087505 0.162307
v 0.570830 0.087451 0.163976
vn 0.0076 0.0283 0.9996
vn -0.0076 -0.0283 -0.9996
vn 0.3053 -0.1688 -0.9371
vn -0.2211 -0.4950 -0.8402
vn -0.1050 -0.2416 -0.9647
vn 0.0958 -0.0751 -0.9926
vn 0.6635 -0.3235 -0.6745
vn -0.3624 -0.8009 -0.4766
vn 0.7667 -0.3658 -0.5276
vn -0.3997 -0.8801 -0.2563
vn -0.0046 -0.2853 -0.9584
vn -0.0057 -0.1962 -0.9805
vn 0.0016 -0.7024 -0.7117
vn 0.0067 -0.9325 -0.3612
vn 0.2195 -0.4900 -0.8436
vn 0.0956 -0.2396 -0.9662
vn 0.3738 -0.7923 -0.4822
vn 0.4163 -0.8705 -0.2623
vn -0.3147 -0.1757 -0.9327
vn -0.1091 -0.0774 -0.9910
vn -0.6650 -0.3392 -0.6654
vn -0.7647 -0.3839 -0.5175
vn -0.3361 -0.0308 -0.9413
vn -0.2092 -0.0302 -0.9774
vn -0.7653 -0.0279 -0.6431
vn -0.9467 -0.0211 -0.3214
vn -0.3190 0.1147 -0.9408
vn -0.1106 0.0186 -0.9937
vn -0.6736 0.2837 -0.6825
vn -0.7746 0.3341 -0.5370
vn 0.2081 0.4466 -0.8701
vn 0.0902 0.1867 -0.9782
vn 0.3547 0.7725 -0.5266
vn 0.3953 0.8640 -0.3117
vn -0.0111 0.2290 -0.9733
vn -0.0099 0.1397 -0.9901
vn -0.0156 0.6588 -0.7521
vn -0.0165 0.9098 -0.4147
vn -0.2343 0.4404 -0.8667
vn -0.1109 0.1838 -0.9767
vn -0.3845 0.7621 -0.5208
vn -0.4242 0.8525 -0.3053
vn 0.3011 0.1235 -0.9455
vn 0.0944 0.0215 -0.9953
vn 0.6549 0.3023 -0.6926
vn 0.7568 0.3555 -0.5485
vn 0.3231 -0.0225 -0.9461
vn 0.1949 -0.0251 -0.9805
vn 0.7566 -0.0087 -0.6538
vn 0.9420 0.0027 -0.3356
vn 0.9102 -0.4142 0.0048
vn -0.4146 -0.9095 0.0289
vn 0.0104 -0.9995 0.0282
vn 0.4364 -0.8994 0.0221
vn -0.8996 -0.4362 0.0191
vn -0.9999 -0.0125 0.0079
vn -0.9108 0.4128 -0.0048
vn 0.4145 0.9096 -0.0289
vn -0.0148 0.9995 -0.0282
vn -0.4402 0.8976 -0.0221
vn 0.8988 0.4378 -0.0192
vn 0.9999 0.0127 -0.0079
vn 0.6738 -0.2851 0.6816
vn -0.3548 -0.7725 0.5266
vn -0.3954 -0.8640 0.3117
vn 0.7747 -0.3357 0.5358
vn 0.3196 -0.1156 0.9405
vn -0.2082 -0.4466 0.8701
vn 0.1108 -0.0189 0.9937
vn -0.0903 -0.1867 0.9782
vn 0.0127 -0.6611 0.7502
vn 0.0126 -0.9106 0.4132
vn 0.0100 -0.2307 0.9730
vn 0.0092 -0.1405 0.9900
vn 0.3813 -0.7639 0.5206
vn 0.4206 -0.8545 0.3048
vn 0.2325 -0.4415 0.8666
vn 0.1103 -0.1846 0.9766
vn -0.6547 -0.3007 0.6935
vn -0.7566 -0.3537 0.5499
vn -0.3005 -0.1226 0.9459
vn -0.0941 -0.0211 0.9953
vn -0.7554 0.0089 0.6551
vn -0.9417 -0.0025 0.3364
vn -0.3218 0.0226 0.9465
vn -0.1944 0.0252 0.9806
vn -0.6633 0.3221 0.6754
vn -0.7665 0.3643 0.5289
vn -0.3048 0.1679 0.9375
vn -0.0956 0.0748 0.9926
vn 0.3623 0.8009 0.4766
vn 0.3996 0.8801 0.2563
vn 0.2210 0.4951 0.8402
vn 0.1050 0.2417 0.9646
vn -0.0045 0.7003 0.7138
vn -0.0107 0.9318 0.3628
vn 0.0035 0.2837 0.9589
vn 0.0050 0.1954 0.9807
vn -0.3769 0.7906 0.4826
vn -0.4199 0.8686 0.2629
vn -0.2214 0.4888 0.8438
vn -0.0963 0.2387 0.9663
vn 0.6652 0.3407 0.6644
vn 0.7648 0.3857 0.5160
vn 0.3153 0.1767 0.9324
vn 0.1094 0.0777 0.9909
vn 0.7664 0.0280 0.6418
vn 0.9470 0.0213 0.3206
vn 0.3374 0.0309 0.9409
vn 0.2097 0.0303 0.9773
usemtl Material.001
s off
f 6//1 8//1 7//1
f 6//1 9//1 8//1
f 9//1 11//1 10//1
f 9//1 12//1 11//1
f 6//1 12//1 9//1
f 5//1 12//1 6//1
f 5//1 3//1 12//1
f 3//1 1//1 12//1
f 5//1 4//1 3//1
f 2//1 1//1 3//1
f 20//2 18//2 19//2
f 21//2 18//2 20//2
f 23//2 21//2 22//2
f 24//2 21//2 23//2
f 24//2 18//2 21//2
f 24//2 17//2 18//2
f 15//2 17//2 24//2
f 13//2 15//2 24//2
f 16//2 17//2 15//2
f 13//2 14//2 15//2
s 1
f 26//3 30//4 29//5 25//6
f 27//7 31//8 30//4 26//3
f 28//9 32//10 31//8 27//7
f 30//4 34//11 33//12 29//5
f 31//8 35//13 34//11 30//4
f 32//10 36//14 35//13 31//8
f 34//11 38//15 37//16 33//12
f 35//13 39//17 38//15 34//11
f 36//14 40//18 39//17 35//13
f 38//15 42//19 41//20 37//16
f 39//17 43//21 42//19 38//15
f 40//18 44//22 43//21 39//17
f 42//19 46//23 45//24 41//20
f 43//21 47//25 46//23 42//19
f 44//22 48//26 47//25 43//21
f 46//23 50//27 49//28 45//24
f 47//25 51//29 50//27 46//23
f 48//26 52//30 51//29 47//25
f 50//27 54//31 53//32 49//28
f 51//29 55//33 54//31 50//27
f 52//30 56//34 55//33 51//29
f 54//31 58//35 57//36 53//32
f 55//33 59//37 58//35 54//31
f 56//34 60//38 59//37 55//33
f 58//35 62//39 61//40 57//36
f 59//37 63//41 62//39 58//35
f 60//38 64//42 63//41 59//37
f 62//39 66//43 65//44 61//40
f 63//41 67//45 66//43 62//39
f 64//42 68//46 67//45 63//41
f 66//43 70//47 69//48 65//44
f 67//45 71//49 70//47 66//43
f 68//46 72//50 71//49 67//45
f 70//47 26//3 25//6 69//48
f 71//49 27//7 26//3 70//47
f 72//50 28//9 27//7 71//49
f 74//51 76//52 75//52 73//51
f 76//52 78//53 77//53 75//52
f 78//53 80//54 79//54 77//53
f 80//54 82//55 81//55 79//54
f 82//55 84//56 83//56 81//55
f 84//56 86//57 85//57 83//56
f 86//57 88//58 87//58 85//57
f 88//58 90//59 89//59 87//58
f 90//59 92//60 91//60 89//59
f 92//60 94//61 93//61 91//60
f 94//61 96//62 95//62 93//61
f 96//62 74//51 73//51 95//62
f 98//63 102//64 101//65 97//66
f 99//67 103//68 102//64 98//63
f 100//69 104//70 103//68 99//67
f 102//64 106//71 105//72 101//65
f 103//68 107//73 106//71 102//64
f 104//70 108//74 107//73 103//68
f 106//71 110//75 109//76 105//72
f 107//73 111//77 110//75 106//71
f 108//74 112//78 111//77 107//73
f 110//75 114//79 113//80 109//76
f 111//77 115//81 114//79 110//75
f 112//78 116//82 115//81 111//77
f 114//79 118//83 117//84 113//80
f 115//81 119//85 118//83 114//79
f 116//82 120//86 119//85 115//81
f 118//83 122//87 121//88 117//84
f 119//85 123//89 122//87 118//83
f 120//86 124//90 123//89 119//85
f 122//87 126//91 125//92 121//88
f 123//89 127//93 126//91 122//87
f 124//90 128//94 127//93 123//89
f 126//91 130//95 129//96 125//92
f 127//93 131//97 130//95 126//91
f 128//94 132//98 131//97 127//93
f 130//95 134//99 133//100 129//96
f 131//97 135//101 134//99 130//95
f 132//98 136//102 135//101 131//97
f 134//99 138//103 137//104 133//100
f 135//101 139//105 138//103 134//99
f 136//102 140//106 139//105 135//101
f 138//103 142//107 141//108 137//104
f 139//105 143//109 142//107 138//103
f 140//106 144//110 143//109 139//105
f 142//107 98//63 97//66 141//108
f 143//109 99//67 98//63 142//107
f 144//110 100//69 99//67 143//109
