# Blender v2.79 (sub 0) OBJ File: 'letters_in_3d.blend'
# www.blender.org
mtllib letters_F.mtl
o Text
v 0.326577 0.325103 0.159097
v 0.329151 0.136196 0.164425
v 0.595119 0.139761 0.162311
v 0.596318 0.051804 0.164792
v 0.330350 0.048239 0.166905
v 0.334668 -0.268606 0.175841
v 0.236680 -0.269920 0.176620
v 0.227390 0.411746 0.157396
v 0.591345 0.416625 0.154503
v 0.592544 0.328668 0.156984
v 0.324882 0.318765 -0.064807
v 0.327457 0.129858 -0.059479
v 0.593424 0.133423 -0.061593
v 0.594623 0.045466 -0.059112
v 0.328656 0.041901 -0.056999
v 0.332974 -0.274944 -0.048063
v 0.234986 -0.276257 -0.047284
v 0.225695 0.405409 -0.066508
v 0.589651 0.410288 -0.069401
v 0.590850 0.322331 -0.066920
v 0.324882 0.318765 -0.064807
v 0.330975 0.312894 -0.063078
v 0.335460 0.308687 -0.058599
v 0.337135 0.307272 -0.052569
v 0.327457 0.129858 -0.059479
v 0.333386 0.135981 -0.058089
v 0.337752 0.140554 -0.053857
v 0.339383 0.142352 -0.047918
v 0.593424 0.133423 -0.061593
v 0.599354 0.139546 -0.060203
v 0.603719 0.144120 -0.055971
v 0.605350 0.145918 -0.050032
v 0.594623 0.045466 -0.059112
v 0.600716 0.039595 -0.057384
v 0.605201 0.035388 -0.052905
v 0.606876 0.033973 -0.046875
v 0.328656 0.041901 -0.056999
v 0.334749 0.036030 -0.055270
v 0.339234 0.031823 -0.050791
v 0.340908 0.030407 -0.044761
v 0.332974 -0.274944 -0.048063
v 0.339067 -0.280815 -0.046335
v 0.343552 -0.285022 -0.041855
v 0.345227 -0.286437 -0.035825
v 0.234986 -0.276257 -0.047284
v 0.229080 -0.282289 -0.045460
v 0.224782 -0.286614 -0.040911
v 0.223242 -0.288073 -0.034856
v 0.225695 0.405409 -0.066508
v 0.219626 0.411371 -0.065023
v 0.215208 0.415826 -0.060721
v 0.213624 0.417581 -0.054756
v 0.589651 0.410288 -0.069401
v 0.595581 0.416411 -0.068011
v 0.599946 0.420984 -0.063779
v 0.601577 0.422782 -0.057840
v 0.590850 0.322331 -0.066920
v 0.596943 0.316460 -0.065192
v 0.601428 0.312253 -0.060713
v 0.603103 0.310837 -0.054683
v 0.337135 0.307272 -0.052569
v 0.338648 0.312930 0.147345
v 0.339383 0.142352 -0.047918
v 0.340896 0.148011 0.151996
v 0.605350 0.145918 -0.050032
v 0.606863 0.151576 0.149883
v 0.606876 0.033973 -0.046875
v 0.608389 0.039631 0.153040
v 0.340908 0.030407 -0.044761
v 0.342421 0.036066 0.155153
v 0.345227 -0.286437 -0.035825
v 0.346740 -0.280779 0.164089
v 0.223242 -0.288073 -0.034856
v 0.224755 -0.282414 0.165058
v 0.213624 0.417581 -0.054756
v 0.215137 0.423240 0.145158
v 0.601577 0.422782 -0.057840
v 0.603090 0.428441 0.142075
v 0.603103 0.310837 -0.054683
v 0.604616 0.316495 0.145232
v 0.338648 0.312930 0.147345
v 0.337064 0.314685 0.153310
v 0.332645 0.319141 0.157612
v 0.326577 0.325103 0.159097
v 0.340896 0.148011 0.151996
v 0.339355 0.146552 0.158052
v 0.335057 0.142228 0.162601
v 0.329151 0.136196 0.164425
v 0.606863 0.151576 0.149883
v 0.605323 0.150118 0.155938
v 0.601024 0.145793 0.160487
v 0.595119 0.139761 0.162311
v 0.608389 0.039631 0.153040
v 0.606805 0.041386 0.159005
v 0.602387 0.045842 0.163306
v 0.596318 0.051804 0.164792
v 0.342421 0.036066 0.155153
v 0.340837 0.037821 0.161118
v 0.336419 0.042277 0.165420
v 0.330350 0.048239 0.166905
v 0.346740 -0.280779 0.164089
v 0.345156 -0.279024 0.170054
v 0.340737 -0.274568 0.174355
v 0.334668 -0.268606 0.175841
v 0.224755 -0.282414 0.165058
v 0.226386 -0.280616 0.170998
v 0.230751 -0.276043 0.175229
v 0.236680 -0.269920 0.176620
v 0.215137 0.423240 0.145158
v 0.216812 0.421824 0.151188
v 0.221296 0.417617 0.155667
v 0.227390 0.411746 0.157396
v 0.603090 0.428441 0.142075
v 0.601550 0.426982 0.148130
v 0.597251 0.422657 0.152679
v 0.591345 0.416625 0.154503
v 0.604616 0.316495 0.145232
v 0.603032 0.318251 0.151197
v 0.598613 0.322706 0.155498
v 0.592544 0.328668 0.156984
vn 0.0076 0.0283 0.9996
vn -0.0076 -0.0283 -0.9996
vn 0.2041 -0.2326 -0.9509
vn 0.1984 0.1842 -0.9626
vn 0.1224 0.1055 -0.9868
vn 0.1259 -0.1576 -0.9794
vn 0.5152 -0.5258 -0.6768
vn 0.5012 0.5007 -0.7058
vn 0.6675 -0.6620 -0.3408
vn 0.6494 0.6597 -0.3781
vn 0.3219 0.3125 -0.8937
vn 0.5763 0.5805 -0.5752
vn 0.3310 -0.3535 -0.8749
vn 0.5923 -0.5961 -0.5421
vn -0.3352 -0.3624 -0.8696
vn -0.1372 -0.1611 -0.9773
vn -0.5846 -0.6118 -0.5327
vn -0.6548 -0.6798 -0.3303
vn -0.3443 0.3036 -0.8884
vn -0.1408 0.1020 -0.9847
vn -0.6007 0.5647 -0.5659
vn -0.6728 0.6420 -0.3676
vn 0.7166 -0.6973 0.0143
vn 0.6974 0.7162 -0.0255
vn -0.6974 -0.7162 0.0255
vn -0.7166 0.6973 -0.0143
vn 0.5256 -0.4869 0.6976
vn 0.5116 0.5395 0.6687
vn 0.6548 0.6798 0.3303
vn 0.6728 -0.6420 0.3676
vn 0.2185 -0.1786 0.9593
vn 0.2129 0.2382 0.9476
vn 0.1408 -0.1020 0.9847
vn 0.1372 0.1611 0.9773
vn 0.5846 0.6118 0.5327
vn 0.3352 0.3624 0.8696
vn 0.6007 -0.5647 0.5659
vn 0.3443 -0.3036 0.8884
vn -0.5763 -0.5805 0.5752
vn -0.6494 -0.6597 0.3781
vn -0.3219 -0.3125 0.8937
vn -0.1224 -0.1055 0.9868
vn -0.5923 0.5961 0.5421
vn -0.6675 0.6620 0.3408
vn -0.3310 0.3535 0.8749
vn -0.1259 0.1576 0.9794
vn 0.5847 0.6118 0.5327
usemtl Material.001
s off
f 7//1 1//1 8//1
f 1//1 9//1 8//1
f 1//1 10//1 9//1
f 7//1 2//1 1//1
f 7//1 5//1 2//1
f 5//1 3//1 2//1
f 5//1 4//1 3//1
f 7//1 6//1 5//1
f 11//2 17//2 18//2
f 19//2 11//2 18//2
f 20//2 11//2 19//2
f 12//2 17//2 11//2
f 15//2 17//2 12//2
f 13//2 15//2 12//2
f 14//2 15//2 13//2
f 16//2 17//2 15//2
s 1
f 22//3 26//4 25//5 21//6
f 23//7 27//8 26//4 22//3
f 24//9 28//10 27//8 23//7
f 26//4 30//11 29//5 25//5
f 27//8 31//12 30//11 26//4
f 28//10 32//10 31//12 27//8
f 30//11 34//13 33//6 29//5
f 31//12 35//14 34//13 30//11
f 32//10 36//9 35//14 31//12
f 34//13 38//3 37//6 33//6
f 35//14 39//7 38//3 34//13
f 36//9 40//9 39//7 35//14
f 38//3 42//13 41//6 37//6
f 39//7 43//14 42//13 38//3
f 40//9 44//9 43//14 39//7
f 42//13 46//15 45//16 41//6
f 43//14 47//17 46//15 42//13
f 44//9 48//18 47//17 43//14
f 46//15 50//19 49//20 45//16
f 47//17 51//21 50//19 46//15
f 48//18 52//22 51//21 47//17
f 50//19 54//11 53//5 49//20
f 51//21 55//12 54//11 50//19
f 52//22 56//10 55//12 51//21
f 54//11 58//13 57//6 53//5
f 55//12 59//14 58//13 54//11
f 56//10 60//9 59//14 55//12
f 58//13 22//3 21//6 57//6
f 59//14 23//7 22//3 58//13
f 60//9 24//9 23//7 59//14
f 62//23 64//24 63//24 61//23
f 64//24 66//24 65//24 63//24
f 66//24 68//23 67//23 65//24
f 68//23 70//23 69//23 67//23
f 70//23 72//23 71//23 69//23
f 72//23 74//25 73//25 71//23
f 74//25 76//26 75//26 73//25
f 76//26 78//24 77//24 75//26
f 78//24 80//23 79//23 77//24
f 80//23 62//23 61//23 79//23
f 82//27 86//28 85//29 81//30
f 83//31 87//32 86//28 82//27
f 84//33 88//34 87//32 83//31
f 86//28 90//35 89//29 85//29
f 87//32 91//36 90//35 86//28
f 88//34 92//34 91//36 87//32
f 90//35 94//37 93//30 89//29
f 91//36 95//38 94//37 90//35
f 92//34 96//33 95//38 91//36
f 94//37 98//27 97//30 93//30
f 95//38 99//31 98//27 94//37
f 96//33 100//33 99//31 95//38
f 98//27 102//37 101//30 97//30
f 99//31 103//38 102//37 98//27
f 100//33 104//33 103//38 99//31
f 102//37 106//39 105//40 101//30
f 103//38 107//41 106//39 102//37
f 104//33 108//42 107//41 103//38
f 106//39 110//43 109//44 105//40
f 107//41 111//45 110//43 106//39
f 108//42 112//46 111//45 107//41
f 110//43 114//47 113//29 109//44
f 111//45 115//36 114//47 110//43
f 112//46 116//34 115//36 111//45
f 114//47 118//37 117//30 113//29
f 115//36 119//38 118//37 114//47
f 116//34 120//33 119//38 115//36
f 118//37 82//27 81//30 117//30
f 119//38 83//31 82//27 118//37
f 120//33 84//33 83//31 119//38
