# Blender v2.79 (sub 0) OBJ File: 'letters_in_3d.blend'
# www.blender.org
mtllib letters_H.mtl
o Text
v 0.715622 -0.263499 0.172813
v 0.711576 0.033355 0.164441
v 0.329623 0.028235 0.167477
v 0.333669 -0.268619 0.175849
v 0.235680 -0.269933 0.176628
v 0.226390 0.411733 0.157404
v 0.324378 0.413046 0.156625
v 0.328424 0.116192 0.164997
v 0.710377 0.121312 0.161961
v 0.706331 0.418167 0.153589
v 0.804320 0.419480 0.152810
v 0.813610 -0.262186 0.172034
v 0.713928 -0.269837 -0.051091
v 0.709882 0.027018 -0.059462
v 0.327928 0.021898 -0.056427
v 0.331974 -0.274957 -0.048055
v 0.233986 -0.276270 -0.047276
v 0.224695 0.405395 -0.066500
v 0.322683 0.406709 -0.067279
v 0.326729 0.109854 -0.058907
v 0.708683 0.114975 -0.061943
v 0.704637 0.411829 -0.070315
v 0.802625 0.413143 -0.071093
v 0.811916 -0.268523 -0.051869
v 0.713928 -0.269837 -0.051091
v 0.708022 -0.275869 -0.049267
v 0.703724 -0.280193 -0.044718
v 0.702183 -0.281652 -0.038662
v 0.709882 0.027018 -0.059462
v 0.703976 0.020986 -0.057639
v 0.699678 0.016661 -0.053089
v 0.698137 0.015202 -0.047034
v 0.327928 0.021898 -0.056427
v 0.334021 0.016026 -0.054698
v 0.338506 0.011819 -0.050219
v 0.340181 0.010404 -0.044189
v 0.331974 -0.274957 -0.048055
v 0.338067 -0.280828 -0.046327
v 0.342552 -0.285035 -0.041847
v 0.344227 -0.286451 -0.035817
v 0.233986 -0.276270 -0.047276
v 0.228081 -0.282302 -0.045453
v 0.223782 -0.286627 -0.040903
v 0.222242 -0.288086 -0.034848
v 0.224695 0.405395 -0.066500
v 0.218626 0.411357 -0.065015
v 0.214208 0.415813 -0.060713
v 0.212624 0.417568 -0.054748
v 0.322683 0.406709 -0.067279
v 0.328613 0.412832 -0.065889
v 0.332978 0.417405 -0.061657
v 0.334609 0.419203 -0.055718
v 0.326729 0.109854 -0.058907
v 0.332659 0.115977 -0.057517
v 0.337024 0.120551 -0.053285
v 0.338655 0.122349 -0.047346
v 0.708683 0.114975 -0.061943
v 0.702614 0.120937 -0.060457
v 0.698196 0.125392 -0.056156
v 0.696612 0.127147 -0.050191
v 0.704637 0.411829 -0.070315
v 0.698568 0.417791 -0.068829
v 0.694150 0.422247 -0.064528
v 0.692566 0.424002 -0.058563
v 0.802625 0.413143 -0.071093
v 0.808555 0.419266 -0.069703
v 0.812920 0.423839 -0.065472
v 0.814551 0.425637 -0.059532
v 0.811916 -0.268523 -0.051869
v 0.818009 -0.274394 -0.050141
v 0.822494 -0.278601 -0.045662
v 0.824169 -0.280017 -0.039632
v 0.702183 -0.281652 -0.038662
v 0.703696 -0.275994 0.161252
v 0.698137 0.015202 -0.047034
v 0.699650 0.020861 0.152880
v 0.340181 0.010404 -0.044189
v 0.341694 0.016062 0.155725
v 0.344227 -0.286451 -0.035817
v 0.345740 -0.280792 0.164097
v 0.222242 -0.288086 -0.034848
v 0.223755 -0.282427 0.165066
v 0.212624 0.417568 -0.054748
v 0.214137 0.423227 0.145166
v 0.334609 0.419203 -0.055718
v 0.336122 0.424862 0.144196
v 0.338655 0.122349 -0.047346
v 0.340168 0.128007 0.152568
v 0.696612 0.127147 -0.050191
v 0.698125 0.132806 0.149723
v 0.692566 0.424002 -0.058563
v 0.694079 0.429660 0.141351
v 0.814551 0.425637 -0.059532
v 0.816064 0.431296 0.140382
v 0.824169 -0.280017 -0.039632
v 0.825682 -0.274358 0.160282
v 0.703696 -0.275994 0.161252
v 0.705327 -0.274195 0.167191
v 0.709693 -0.269622 0.171423
v 0.715622 -0.263499 0.172813
v 0.699650 0.020861 0.152880
v 0.701281 0.022659 0.158820
v 0.705647 0.027232 0.163051
v 0.711576 0.033355 0.164441
v 0.341694 0.016062 0.155725
v 0.340110 0.017817 0.161690
v 0.335691 0.022273 0.165992
v 0.329623 0.028235 0.167477
v 0.345740 -0.280792 0.164097
v 0.344156 -0.279037 0.170062
v 0.339737 -0.274582 0.174363
v 0.333669 -0.268619 0.175849
v 0.223755 -0.282427 0.165066
v 0.225386 -0.280629 0.171006
v 0.229751 -0.276056 0.175237
v 0.235680 -0.269933 0.176628
v 0.214137 0.423227 0.145166
v 0.215812 0.421811 0.151196
v 0.220297 0.417604 0.155675
v 0.226390 0.411733 0.157404
v 0.336122 0.424862 0.144196
v 0.334582 0.423403 0.150252
v 0.330283 0.419078 0.154801
v 0.324378 0.413046 0.156625
v 0.340168 0.128007 0.152568
v 0.338628 0.126549 0.158624
v 0.334329 0.122224 0.163173
v 0.328424 0.116192 0.164997
v 0.698125 0.132806 0.149723
v 0.699799 0.131390 0.155753
v 0.704284 0.127183 0.160233
v 0.710377 0.121312 0.161961
v 0.694079 0.429660 0.141351
v 0.695754 0.428245 0.147381
v 0.700238 0.424038 0.151861
v 0.706331 0.418167 0.153589
v 0.816064 0.431296 0.140382
v 0.814524 0.429837 0.146438
v 0.810225 0.425512 0.150987
v 0.804320 0.419480 0.152810
v 0.825682 -0.274358 0.160282
v 0.824098 -0.272603 0.166247
v 0.819679 -0.268148 0.170549
v 0.813610 -0.262186 0.172034
vn 0.0076 0.0283 0.9996
vn -0.0076 -0.0283 -0.9996
vn -0.3352 -0.3624 -0.8696
vn -0.2129 -0.2382 -0.9476
vn -0.1372 -0.1611 -0.9773
vn -0.5846 -0.6118 -0.5327
vn -0.5116 -0.5395 -0.6687
vn -0.6548 -0.6798 -0.3303
vn 0.2041 -0.2326 -0.9509
vn 0.1259 -0.1576 -0.9794
vn 0.5152 -0.5258 -0.6768
vn 0.6675 -0.6620 -0.3408
vn 0.3310 -0.3535 -0.8749
vn 0.5923 -0.5961 -0.5421
vn -0.3443 0.3036 -0.8884
vn -0.1408 0.1020 -0.9847
vn -0.6007 0.5647 -0.5659
vn -0.6728 0.6420 -0.3676
vn 0.3219 0.3125 -0.8937
vn 0.1224 0.1055 -0.9868
vn 0.5763 0.5805 -0.5752
vn 0.6494 0.6597 -0.3781
vn 0.1984 0.1842 -0.9626
vn 0.5012 0.5007 -0.7058
vn -0.2185 0.1786 -0.9593
vn -0.5256 0.4869 -0.6976
vn -0.6974 -0.7162 0.0255
vn 0.7166 -0.6973 0.0143
vn -0.7166 0.6973 -0.0143
vn 0.6974 0.7162 -0.0255
vn -0.5763 -0.5805 0.5752
vn -0.5012 -0.5007 0.7058
vn -0.6494 -0.6597 0.3781
vn -0.3219 -0.3125 0.8937
vn -0.1984 -0.1842 0.9626
vn -0.1224 -0.1055 0.9868
vn 0.5256 -0.4869 0.6976
vn 0.6728 -0.6420 0.3676
vn 0.2185 -0.1786 0.9593
vn 0.1408 -0.1020 0.9847
vn 0.6007 -0.5647 0.5659
vn 0.3443 -0.3036 0.8884
vn -0.5923 0.5961 0.5421
vn -0.6675 0.6620 0.3408
vn -0.3310 0.3535 0.8749
vn -0.1259 0.1576 0.9794
vn 0.5847 0.6118 0.5327
vn 0.6548 0.6798 0.3303
vn 0.3352 0.3624 0.8696
vn 0.1372 0.1611 0.9773
vn 0.5116 0.5395 0.6687
vn 0.2129 0.2382 0.9476
vn -0.5152 0.5258 0.6768
vn -0.6674 0.6620 0.3408
vn -0.2041 0.2326 0.9509
vn 0.5846 0.6118 0.5327
usemtl Material.001
s off
f 5//1 7//1 6//1
f 5//1 8//1 7//1
f 9//1 11//1 10//1
f 9//1 12//1 11//1
f 5//1 3//1 8//1
f 3//1 9//1 8//1
f 3//1 2//1 9//1
f 2//1 12//1 9//1
f 5//1 4//1 3//1
f 1//1 12//1 2//1
f 19//2 17//2 18//2
f 20//2 17//2 19//2
f 23//2 21//2 22//2
f 24//2 21//2 23//2
f 15//2 17//2 20//2
f 21//2 15//2 20//2
f 14//2 15//2 21//2
f 24//2 14//2 21//2
f 16//2 17//2 15//2
f 24//2 13//2 14//2
s 1
f 26//3 30//4 29//5 25//5
f 27//6 31//7 30//4 26//3
f 28//8 32//8 31//7 27//6
f 30//4 34//9 33//10 29//5
f 31//7 35//11 34//9 30//4
f 32//8 36//12 35//11 31//7
f 34//9 38//13 37//10 33//10
f 35//11 39//14 38//13 34//9
f 36//12 40//12 39//14 35//11
f 38//13 42//3 41//5 37//10
f 39//14 43//6 42//3 38//13
f 40//12 44//8 43//6 39//14
f 42//3 46//15 45//16 41//5
f 43//6 47//17 46//15 42//3
f 44//8 48//18 47//17 43//6
f 46//15 50//19 49//20 45//16
f 47//17 51//21 50//19 46//15
f 48//18 52//22 51//21 47//17
f 50//19 54//23 53//20 49//20
f 51//21 55//24 54//23 50//19
f 52//22 56//22 55//24 51//21
f 54//23 58//25 57//16 53//20
f 55//24 59//26 58//25 54//23
f 56//22 60//18 59//26 55//24
f 58//25 62//15 61//16 57//16
f 59//26 63//17 62//15 58//25
f 60//18 64//18 63//17 59//26
f 62//15 66//19 65//20 61//16
f 63//17 67//21 66//19 62//15
f 64//18 68//22 67//21 63//17
f 66//19 70//13 69//10 65//20
f 67//21 71//14 70//13 66//19
f 68//22 72//12 71//14 67//21
f 70//13 26//3 25//5 69//10
f 71//14 27//6 26//3 70//13
f 72//12 28//8 27//6 71//14
f 74//27 76//27 75//27 73//27
f 76//27 78//28 77//28 75//27
f 78//28 80//28 79//28 77//28
f 80//28 82//27 81//27 79//28
f 82//27 84//29 83//29 81//27
f 84//29 86//30 85//30 83//29
f 86//30 88//30 87//30 85//30
f 88//30 90//29 89//29 87//30
f 90//29 92//29 91//29 89//29
f 92//29 94//30 93//30 91//29
f 94//30 96//28 95//28 93//30
f 96//28 74//27 73//27 95//28
f 98//31 102//32 101//33 97//33
f 99//34 103//35 102//32 98//31
f 100//36 104//36 103//35 99//34
f 102//32 106//37 105//38 101//33
f 103//35 107//39 106//37 102//32
f 104//36 108//40 107//39 103//35
f 106//37 110//41 109//38 105//38
f 107//39 111//42 110//41 106//37
f 108//40 112//40 111//42 107//39
f 110//41 114//31 113//33 109//38
f 111//42 115//34 114//31 110//41
f 112//40 116//36 115//34 111//42
f 114//31 118//43 117//44 113//33
f 115//34 119//45 118//43 114//31
f 116//36 120//46 119//45 115//34
f 118//43 122//47 121//48 117//44
f 119//45 123//49 122//47 118//43
f 120//46 124//50 123//49 119//45
f 122//47 126//51 125//48 121//48
f 123//49 127//52 126//51 122//47
f 124//50 128//50 127//52 123//49
f 126//51 130//53 129//54 125//48
f 127//52 131//55 130//53 126//51
f 128//50 132//46 131//55 127//52
f 130//53 134//43 133//54 129//54
f 131//55 135//45 134//43 130//53
f 132//46 136//46 135//45 131//55
f 134//43 138//56 137//48 133//54
f 135//45 139//49 138//56 134//43
f 136//46 140//50 139//49 135//45
f 138//56 142//41 141//38 137//48
f 139//49 143//42 142//41 138//56
f 140//50 144//40 143//42 139//49
f 142//41 98//31 97//33 141//38
f 143//42 99//34 98//31 142//41
f 144//40 100//36 99//34 143//42
