# Blender v2.79 (sub 0) OBJ File: 'letters_in_3d.blend'
# www.blender.org
mtllib letters_I.mtl
o Text
v 0.236680 -0.269920 0.176620
v 0.227390 0.411746 0.157396
v 0.325378 0.413060 0.156617
v 0.334668 -0.268606 0.175841
v 0.234986 -0.276257 -0.047284
v 0.225695 0.405409 -0.066508
v 0.323683 0.406722 -0.067287
v 0.332974 -0.274944 -0.048063
v 0.234986 -0.276257 -0.047284
v 0.229080 -0.282289 -0.045460
v 0.224782 -0.286614 -0.040911
v 0.223242 -0.288073 -0.034856
v 0.225695 0.405409 -0.066508
v 0.219626 0.411371 -0.065023
v 0.215208 0.415826 -0.060721
v 0.213624 0.417581 -0.054756
v 0.323683 0.406722 -0.067287
v 0.329613 0.412845 -0.065897
v 0.333978 0.417418 -0.061665
v 0.335609 0.419217 -0.055726
v 0.332974 -0.274944 -0.048063
v 0.339067 -0.280815 -0.046335
v 0.343552 -0.285022 -0.041855
v 0.345227 -0.286437 -0.035825
v 0.223242 -0.288073 -0.034856
v 0.224755 -0.282414 0.165058
v 0.213624 0.417581 -0.054756
v 0.215137 0.423240 0.145158
v 0.335609 0.419217 -0.055726
v 0.337122 0.424875 0.144188
v 0.345227 -0.286437 -0.035825
v 0.346740 -0.280779 0.164089
v 0.224755 -0.282414 0.165058
v 0.226386 -0.280616 0.170998
v 0.230751 -0.276043 0.175229
v 0.236680 -0.269920 0.176620
v 0.215137 0.423240 0.145158
v 0.216812 0.421824 0.151188
v 0.221296 0.417617 0.155667
v 0.227390 0.411746 0.157396
v 0.337122 0.424875 0.144188
v 0.335582 0.423416 0.150244
v 0.331283 0.419092 0.154793
v 0.325378 0.413060 0.156617
v 0.346740 -0.280779 0.164089
v 0.345156 -0.279024 0.170054
v 0.340737 -0.274568 0.174355
v 0.334668 -0.268606 0.175841
vn 0.0076 0.0283 0.9996
vn -0.0076 -0.0283 -0.9996
vn -0.3352 -0.3624 -0.8696
vn -0.3443 0.3036 -0.8884
vn -0.1408 0.1020 -0.9847
vn -0.1372 -0.1611 -0.9773
vn -0.5846 -0.6118 -0.5327
vn -0.6007 0.5647 -0.5659
vn -0.6548 -0.6798 -0.3303
vn -0.6728 0.6420 -0.3676
vn 0.3219 0.3125 -0.8937
vn 0.1224 0.1055 -0.9868
vn 0.5763 0.5805 -0.5752
vn 0.6494 0.6597 -0.3781
vn 0.3310 -0.3535 -0.8749
vn 0.1259 -0.1576 -0.9794
vn 0.5923 -0.5961 -0.5421
vn 0.6675 -0.6620 -0.3408
vn -0.6974 -0.7162 0.0255
vn -0.7166 0.6973 -0.0143
vn 0.6974 0.7162 -0.0255
vn 0.7166 -0.6973 0.0143
vn -0.5763 -0.5805 0.5752
vn -0.5923 0.5961 0.5421
vn -0.6675 0.6620 0.3408
vn -0.6494 -0.6597 0.3781
vn -0.3219 -0.3125 0.8937
vn -0.3310 0.3535 0.8749
vn -0.1224 -0.1055 0.9868
vn -0.1259 0.1576 0.9794
vn 0.5847 0.6118 0.5327
vn 0.6548 0.6798 0.3303
vn 0.3352 0.3624 0.8696
vn 0.1372 0.1611 0.9773
vn 0.6007 -0.5647 0.5659
vn 0.6728 -0.6420 0.3676
vn 0.3443 -0.3036 0.8884
vn 0.1408 -0.1020 0.9847
usemtl Material.001
s off
f 1//1 3//1 2//1
f 1//1 4//1 3//1
f 7//2 5//2 6//2
f 8//2 5//2 7//2
s 1
f 10//3 14//4 13//5 9//6
f 11//7 15//8 14//4 10//3
f 12//9 16//10 15//8 11//7
f 14//4 18//11 17//12 13//5
f 15//8 19//13 18//11 14//4
f 16//10 20//14 19//13 15//8
f 18//11 22//15 21//16 17//12
f 19//13 23//17 22//15 18//11
f 20//14 24//18 23//17 19//13
f 22//15 10//3 9//6 21//16
f 23//17 11//7 10//3 22//15
f 24//18 12//9 11//7 23//17
f 26//19 28//20 27//20 25//19
f 28//20 30//21 29//21 27//20
f 30//21 32//22 31//22 29//21
f 32//22 26//19 25//19 31//22
f 34//23 38//24 37//25 33//26
f 35//27 39//28 38//24 34//23
f 36//29 40//30 39//28 35//27
f 38//24 42//31 41//32 37//25
f 39//28 43//33 42//31 38//24
f 40//30 44//34 43//33 39//28
f 42//31 46//35 45//36 41//32
f 43//33 47//37 46//35 42//31
f 44//34 48//38 47//37 43//33
f 46//35 34//23 33//26 45//36
f 47//37 35//27 34//23 46//35
f 48//38 36//29 35//27 47//37
